<svg xmlns="http://www.w3.org/2000/svg" xmlns:xlink="http://www.w3.org/1999/xlink" width="436" height="259" viewBox="0 0 436 259"><defs><path id="a" d="M.4 0h283.3v189.3H.4z"/><path id="c" d="M.7 15l53.9 37.7 24.3-15L25 0z"/><path id="f" d="M14.8.5c-1.5.3-3.2.5-5.6.3C1.7.2.2 8.8.4 16.4c0 5.7 7.2 5 9.5 8.6 2 3.1-.7 12.4 4.5 15 8 4 14.6-4.3 14-13.1-.3-4.2-1.6-8.4-1.5-12.6 0-5 .6-13.8-8.2-14.2h-.5c-1.1 0-2.2.2-3.4.4"/><path id="i" d="M.3.8H19v23H.3z"/><path id="k" d="M19.7.6A19 19 0 00.5 21c0 7.4 7.3 33.1 13 52.6 6.6 21.8 9 28.9 15.4 46.9 2.6 7.4 7.9 14.1 17.2 14 4.4-.1 8-.5 8-.5s7.4 11.3 16.4 21.8c2.8 3.1 6.5 5.2 10.6 5.8 13.2 2 39.3 2 40 2.1 8.4 1.3 11-21.4 3.7-23l-33.1-8.4s-4-12.7-7.2-26.8c-1.2-4.8-7.3-57.8-12.3-68C66.4 25.5 33 .5 20 .5h-.3"/><path id="n" d="M32.9 95.5S25.4 90.4 23 77C17 55.9 11 44.6 5.3 30.4c-4.3-11-8-19 .5-29.8 3.4-4.4 26.5 58.9 27.6 63.6C36.7 78.4 40.7 91 40.7 91l33 8.5c.7.2 1.3.5 1.8 1 3.2 0 5.1-1 7.7-.8 5 .2 7 3.3 7.7 6.8"/><path id="q" d="M1.6 26.2c2.2 6.3 19.3 31.4 20.2 35.2 1 3.6 3.3 30.3 3.9 39 .4 6.2 17.2 7.2 18-.1 0 0 4.6-33.9 3-42.4-1.2-7-12.3-43.1-27.6-55.2a8 8 0 00-5-2C5.3.8-2 16.5 1.5 26.3"/><path id="t" d="M22.3 1.4C8.5 4.3 1.9 14.2.9 22.6c-.2 1.2 1.6 2.8 1.6 2.8-.1 17.7 10.9 35 27.7 36l2.3.2c9.6.2 18.4-5.5 21.1-11.4V50c.6-3.6 1.4-7.2 2.4-10.8 2-7.4 1.8-13.7-1.2-20.4A30.5 30.5 0 0028.1.8c-1.9 0-3.8.2-5.8.6"/><path id="w" d="M32.1 32.6c3.4-.8 5.7-2 7.1-3.7a5.5 5.5 0 001-5c-1-3.5-4.6-6.4-9.7-8.3C7.3 7.3 0 0 0 0c-.2 20.2 12.6 35.1 32.1 32.6"/><path id="z" d="M11.1 18L1 .2C5.9 5 9 7 15 9.2l5.8 8.5s-3.5.4-7.9.5"/><linearGradient id="d" x1="97.6%" x2="27.7%" y1="54.6%" y2="47.8%"><stop offset="0%" stop-color="#BFBFBF"/><stop offset="100%" stop-color="#ACACAC"/></linearGradient><linearGradient id="g" x1="48.2%" x2="56.8%" y1="62.3%" y2="4.9%"><stop offset="0%" stop-color="#DFDFDF"/><stop offset="100%" stop-color="#CFCFCF"/></linearGradient><linearGradient id="l" x1="56.4%" x2="32.9%" y1="49.6%" y2="52.1%"><stop offset="0%" stop-color="#EDEDED"/><stop offset="100%" stop-color="#CFCFCF"/></linearGradient><linearGradient id="o" x1="41.6%" x2="-2.8%" y1="51%" y2="55.4%"><stop offset="0%" stop-color="#BFBFBF"/><stop offset="100%" stop-color="#CDCDCD"/></linearGradient><linearGradient id="r" x1="58.2%" x2="46.3%" y1="113.9%" y2="3.9%"><stop offset="0%" stop-color="#EDEDED"/><stop offset="100%" stop-color="#CFCFCF"/></linearGradient><linearGradient id="x" x1="101.9%" x2="-5.1%" y1="58.4%" y2="45.6%"><stop offset="0%" stop-color="#111D2A"/><stop offset="100%" stop-color="#1F3449"/></linearGradient><linearGradient id="A" x1="66.3%" x2="33.3%" y1="43.2%" y2="54.9%"><stop offset="0%" stop-color="#FFF"/><stop offset="100%" stop-color="#BFBFBF"/></linearGradient><radialGradient id="u" cx="20.2%" cy="-1.4%" r="119%" fx="20.2%" fy="-1.4%" gradientTransform="scale(-1 -.92803) rotate(8.189 -.203 -2.817)"><stop offset="0%" stop-color="#FFF"/><stop offset="100%" stop-color="#DFDFDF"/></radialGradient></defs><g fill="none" fill-rule="evenodd"><g transform="translate(151.67)"><mask id="b" fill="#fff"><use xlink:href="#a"/></mask><path fill="#DADADA" d="M283.7 0c-29.6 50.6-73.3 48-116 45.4-17.9-1-34.9-2.1-50.8.7a35.6 35.6 0 00-29.7 30.3A29.9 29.9 0 0099.5 105c6.2 4 14.6 7 23.4 10 11 3.8 22.4 7.7 30.7 14.2 8.5 6.8 10.8 15.8 6 24.2a23.2 23.2 0 01-28 10.2l-3.1-1.5a32 32 0 00-4.9-2.2c-12.4-4-21.2 4-29.7 11.8C82.6 182 72.8 191 54.3 176l-2.1-1.8c-5.1-4.1-10.3-8.4-16.5-11.3-11.3-5.2-19.4-.6-34 8.7a2.6 2.6 0 102.8 4.5c14.7-9.4 20.5-12.3 29-8.4a74.4 74.4 0 0115.3 10.6l2.1 1.8c8.3 6.7 15.3 9.2 21.4 9.2 10.2 0 18-7 25.1-13.6 8.1-7.3 15-13.7 24.6-10.6 1.4.4 2.7 1 4 1.8l3.8 1.7a28.2 28.2 0 0034.4-12.5c4.8-8.4 5.4-21-7.3-31-9-7-20.8-11.1-32.3-15a103 103 0 01-22.2-9.5 24.3 24.3 0 01-10-23.6 30.3 30.3 0 0125.4-25.7c15.3-2.7 32-1.7 49.7-.6 40.2 2.4 85 5.1 116.2-40.8V.1z" mask="url(#b)"/></g><path fill="#4C423C" d="M4.4 131c.9-1.5 6.8-6.8 8.3-7.2.8-.2 8.4 9.4 7.7 10.3-2 2.5-5.3 2.9-7.2 6.3-1.2 2.2-2.8 8.2-5 6.9-2.5-1.8-.4-4.9.5-7.6l-2.3 1.2c-1.3 1.7-2 5-4.2 6.1-3.5 1.8-2.9-7.5 2.2-16"/><path fill="#EDEDED" d="M9.4 125.3c1.5-3 17.6-15.1 24.2-20 1.9-1.4 3.4-3 4.5-5 3.8-6.6 13.6-22.4 22.4-25.9 9-3.5 19.7 2.7 27 6.6 3.1 1.7-.7 9-6.3 13.2l-27.7 24.4a31.5 31.5 0 01-5.8 4c-7.5 4.1-26.3 14-30.2 14.2-3.7.1-10.1-7.3-8-11.5"/><path fill="#BFBFBF" d="M42 121.8c2-1.1 4-2.5 5.8-4l27.7-24.4 1.1-1 8-1.4c-1 1.2-2.1 2.3-3.4 3.2l-27.7 24.4c-1.8 1.6-3.7 3-5.8 4-7.5 4.1-26.3 14-30.2 14.2-1 0-2.2-.5-3.4-1.4 6.4-2.2 21.3-10 27.9-13.6"/><path fill="#4C423C" d="M155.2 180.8l1-.6c1.6-.9 3.3-1.3 5-1.2 9 .5 9.6 12.2 12 17.7 1.3 2.8 3.2 6.5 3.8 9.6 1 5.8-.7 10.6-5 13-1.8 1.1-3.9 1.2-6.2 1.4-2.2 0-4.3-1.5-5.2-3.5-.7-1.7-4.6-25.2-6.1-27-1.2-1.3-1.6-.8-1.7-3 0-2.9.5-4.9 2.4-6.4"/><path fill="#B2B2B2" d="M157 181c8.6-2.1 10.6 6.5 12 11.4 1.3 4 3.7 7.7 5.3 11.7 3.2 8.2-.7 18.2-9.6 16.7-5.8-1-5.9-10.7-8.7-13-3.4-2.9-10-.1-11.8-5.6-2.3-7.3-3.5-16 3.9-17.6 4.4-1 6-2.8 9-3.6"/><path fill="#4C423C" d="M161.7 216.6c9 1.5 12.8-8.5 9.6-16.7-.3-.8-.7-2.5-1-4.3a26 26 0 014.7 8.3c3.2 8.3-1.4 18.4-10.3 17-2.6-.5-4-2.7-5-5.2a5 5 0 002 1"/><path fill="#A5A5A5" d="M127.6 182.6l21 .8c7.5-.3 10.5 22.4 2 23.3-7 .7-15.5 2.1-23.9 3.4l1-27.5z"/><path fill="#E8E8E8" d="M74.7 72.7l8.6 83.7 54 38.2-8.6-83.6z"/><path fill="#BFBFBF" d="M128.7 111l8.5 83.6 24.4-15.2-8.6-83.7z"/><g transform="translate(74 58)"><mask id="e" fill="#fff"><use xlink:href="#c"/></mask><path fill="url(#d)" d="M.7 15l53.9 37.7 24.3-15L25 0z" mask="url(#e)"/></g><path fill="#E8E8E8" d="M72.2 43.3l2.9 27.5 54 38.3-3-27.5z"/><path fill="#BFBFBF" d="M126.2 81.6L129 109l24.3-15.3L145 70z"/><path fill="#FFF" d="M72.2 43.3l54 38.3 18.7-11.7-54-38.3z"/><path fill="#4C423C" d="M187.6 217c.3-.2.5-.2 1.2-.3 1.7-.5 3.4-.4 5.1.3 8.4 3 5.6 14.5 6.3 20.4.4 3.1 1 7.2.7 10.3-.7 5.8-3.7 10-8.5 10.9-2 .6-4.1.1-6.4-.5-2.1-.5-3.7-2.6-4-4.8-.1-1.8 3-25.5 2.1-27.6-.7-1.7-1.3-1.2-.6-3.5.7-2.6 1.8-4.4 4.1-5.3"/><g transform="translate(170 218)"><mask id="h" fill="#fff"><use xlink:href="#f"/></mask><path fill="url(#g)" d="M14.8.5c-1.5.3-3.2.5-5.6.3C1.7.2.2 8.8.4 16.4c0 5.7 7.2 5 9.5 8.6 2 3.1-.7 12.4 4.5 15 8 4 14.6-4.3 14-13.1-.3-4.2-1.6-8.4-1.5-12.6 0-5 .6-13.8-8.2-14.2h-.5c-1.1 0-2.2.2-3.4.4" mask="url(#h)"/></g><g transform="translate(181 235)"><mask id="j" fill="#fff"><use xlink:href="#i"/></mask><path fill="#4C423C" d="M2 18c8.4 4 15.1-4.3 14.5-12.9 0-.8 0-2.4.3-4.3 1.4 2.7 1.9 6.1 2.1 9.2.7 8.6-6.9 16.7-15.2 12.8-2.3-1.2-3-3.6-3.4-6.2.5.6 1 1 1.8 1.4" mask="url(#j)"/></g><g transform="translate(54 76)"><mask id="m" fill="#fff"><use xlink:href="#k"/></mask><path fill="url(#l)" d="M19.7.6A19 19 0 00.5 21c0 7.4 7.3 33.1 13 52.6 6.6 21.8 9 28.9 15.4 46.9 2.6 7.4 7.9 14.1 17.2 14 4.4-.1 8-.5 8-.5s7.4 11.3 16.4 21.8c2.8 3.1 6.5 5.2 10.6 5.8 13.2 2 39.3 2 40 2.1 8.4 1.3 11-21.4 3.7-23l-33.1-8.4s-4-12.7-7.2-26.8c-1.2-4.8-7.3-57.8-12.3-68C66.4 25.5 33 .5 20 .5h-.3" mask="url(#m)"/></g><path fill="#ADADAD" d="M59.8 152.7c.8.1 1.7 0 2.5-.2 5-1.6 7.8-6.5 7.9-6.7a2.1 2.1 0 00-3.7-2.1s-2.2 3.7-5.5 4.8l-1-.1a1 1 0 01-.5-.6c-1-3.7 1.6-11.7 2.7-14.5.4-1.1-.1-2.3-1.2-2.7-1.1-.4-2.3 0-2.8 1.2-.4 1.1-4.2 11.4-2.8 17a5 5 0 002.5 3.3c.6.3 1.2.5 1.9.6"/><g transform="translate(55 84) translate(49.937 34.008)"><mask id="p" fill="#fff"><use xlink:href="#n"/></mask><path fill="url(#o)" d="M32.9 95.5S25.4 90.4 23 77C17 55.9 11 44.6 5.3 30.4c-4.3-11-8-19 .5-29.8 3.4-4.4 26.5 58.9 27.6 63.6C36.7 78.4 40.7 91 40.7 91l33 8.5c.7.2 1.3.5 1.8 1 3.2 0 5.1-1 7.7-.8 5 .2 7 3.3 7.7 6.8-13-.7-46.4-9.9-58-11" mask="url(#p)"/></g><path fill="#D1D1D1" d="M91 171.6c.8 1.8 2.4 3.3 3.7 3.4 1.3 0 1.8-1.4 1-3.2-.7-1.8-2.3-3.4-3.6-3.4-1.3-.1-1.8 1.3-1 3.2"/><path fill="#ADADAD" d="M136.1 87c.5-1.4 1.9-2.6 3-2.6 1.3 0 1.9 1 1.4 2.5-.4 1.5-1.8 2.7-3 2.7s-1.8-1-1.4-2.5"/><path fill="#D1D1D1" d="M75 161.9c.6 1.7 2 3.4 3 3.6 1.2.3 1.6-1 1-2.7-.5-1.8-2-3.5-3-3.7-1.2-.3-1.6 1-1 2.8"/><path fill="#ADADAD" d="M116.1 184.9c3.2.4 6.2.2 9-.4 8.3-1.7 14.6-6 18.9-12.6 8.8-13.8 9.1-38.5.9-75.7-.3-1.4-1.5-6-4-9.9a2.1 2.1 0 10-3.6 2.4c2.2 3.3 3.3 7.6 3.4 8.4 8 36 8 59.8-.3 72.5-3.6 5.7-9 9.3-16.2 10.8-13.3 2.8-25.2-6.9-34.5-28A2.1 2.1 0 0086 154c9.6 22 20.7 29.4 30.2 30.8"/><path fill="#ADADAD" d="M108.3 194.4a41.3 41.3 0 0036.4-14c3.8-4.6 6.2-9.7 6-11.1a2.1 2.1 0 00-4.1-.1c-.4 1-7.2 19.6-32 21.3A24 24 0 0190.8 177c-.1-.5 0-1 .5-1.3l3.2-2.1c1-.7-1-4.8-2.4-3.5l-3.1 2c-2 1.4-3 4-2.2 6.2 1.6 4.8 9 14.3 21.5 16.1"/><g transform="translate(105 109)"><mask id="s" fill="#fff"><use xlink:href="#q"/></mask><path fill="url(#r)" d="M1.6 26.2c2.2 6.3 19.3 31.4 20.2 35.2 1 3.6 3.3 30.3 3.9 39 .4 6.2 17.2 7.2 18-.1 0 0 4.6-33.9 3-42.4-1.2-7-12.3-43.1-27.6-55.2a8 8 0 00-5-2C5.3.8-2 16.5 1.5 26.3" mask="url(#s)"/></g><g><path fill="#E2E2E2" d="M131 209.6l-1.4-12.4-1.4-12.7-.8-7.2-.5-3.7c-.2-1.2-.3-2.5-.7-3.5-.8-2-2.2-4.3-3.4-6.4l-3.6-6.2-6.4-11a129.8 129.8 0 01-5.4-11.3l1.5 3 4.4 8c2 3.1 4.2 6.9 6.6 10.9l3.7 6.2c1.2 2 2.6 4.2 3.6 6.5.4 1.2.5 2.5.7 3.7l.4 3.7.8 7.2 1.1 12.7 1 12.5h-.1z"/><path fill="#BFBFBF" d="M144.5 212.3s4.5-34 3-42.5c-1.3-7-12.1-43.2-27.2-55.4a7.3 7.3 0 00-7.1-1.5c3.2-3.4 7.4-4.6 11.4-1.3 15 12.1 26 48.4 27.2 55.3 1.5 8.6-3 42.6-3 42.6-.3 2.4-2.3 4-5 4.7.4-.6.6-1.2.7-1.9"/><path fill="#4C423C" d="M127.6 221.5c.8-1.3 2-2.3 2.7-3.7 1.3-2.2 2.8-7.7 3-8.8.9-3.4 12.2-3 13.6 1.9.7 2.3 1.8 7.2 2.6 11.7.2 1.2 1.3 11.7-.5 12.9-1 .7-2.5.6-2.8-2.4 1.4 6.2-2.7 7.8-3.6 4.5-.5-1.9-.4-3.6-.8-5.5.1 2.7 0 9.4-3.4 8.6-1-.3-1.6-1.7-1.5-2.7 0-1.3.7-4.7.9-6.3-.7 3.2-1.7 8-4.5 6.8-2-1 .1-9 0-11.9v-4c-3.1 4-9 4-5.7-1"/><path fill="#BFBFBF" d="M60.7 93.3a30 30 0 009.9 12.9c9.5 7.2 21.2 9 30.2 3.7 5.5-3.3 8.9-10 4.2-16.8-3.2-4.6-37-12.4-42.6-9.3-3.2 1.6-3.5 4.9-1.7 9.5"/></g><g transform="translate(52 47)"><mask id="v" fill="#fff"><use xlink:href="#t"/></mask><path fill="url(#u)" d="M22.3 1.4C8.5 4.3 1.9 14.2.9 22.6c-.2 1.2 1.6 2.8 1.6 2.8-.1 17.7 10.9 35 27.7 36l2.3.2c9.6.2 18.4-5.5 21.1-11.4V50c.6-3.6 1.4-7.2 2.4-10.8 2-7.4 1.8-13.7-1.2-20.4A30.5 30.5 0 0028.1.8c-1.9 0-3.8.2-5.8.6" mask="url(#v)"/></g><g transform="translate(54 73)"><mask id="y" fill="#fff"><use xlink:href="#w"/></mask><path fill="url(#x)" d="M32.1 32.6c3.4-.8 5.7-2 7.1-3.7a5.5 5.5 0 001-5c-1-3.5-4.6-6.4-9.7-8.3C7.3 7.3 0 0 0 0c-.2 20.2 12.6 35.1 32.1 32.6" mask="url(#y)"/></g><g><path fill="#EBEBEB" d="M86.8 103.6c3.3-.9 5.6-2 7-3.8 1-1.1 1.4-2.7 1.2-4.2l.2.3c.4 1.7 0 3.7-1 5-1.5 1.8-3.8 3-7.2 3.8-16 2-27.4-7.8-30.9-22.6 3.8 14.2 15 23.5 30.7 21.5"/><path fill="#E0E0E0" d="M60.2 118.4c8.2 8.2 18.7 14.3 29 19.4l4.4 17.9-6.2 4a103.8 103.8 0 01-25.1-17.9 9.6 9.6 0 01-2.2-4l-4.5-16.5 4.6-3z"/><path fill="#D1D1D1" d="M89.3 137.8l4.3 17.9-6.2 4L83 142z"/><path fill="#FFF" d="M60.2 118.4c8.2 8.2 18.7 14.3 29 19.4l-6.1 4.2c-10.3-6.2-21-13-27.5-20.7l4.6-3z"/><g transform="translate(55 82) translate(32.438 110.299)"><mask id="B" fill="#fff"><use xlink:href="#z"/></mask><path fill="url(#A)" d="M11.1 18L1 .2C5.9 5 9 7 15 9.2l5.8 8.5s-3.5.4-7.9.5l-1.9-.2" mask="url(#B)"/></g><path fill="#D1D1D1" d="M59.2 127.5v-.1c5.9 5.4 13.4 10.2 20.7 14.6 1 .6 1.7 1.5 2 2.7l2.6 11.2-.1.1c-9.3-5.4-16-10-21.3-15.8-.4-.5-.8-1.1-1-1.9l-3-10.8zm-.5.1l3 10.9c.2.8.6 1.5 1 2a84.6 84.6 0 0021.6 16h.5c.2-.2.3-.5.2-.7l-2.7-11.2c-.3-1.3-1-2.4-2.2-3-7.2-4.5-14.7-9.3-20.4-14.6a.6.6 0 00-.7 0c-.3 0-.4.4-.3.6z"/><path fill="#ADADAD" d="M69.6 153.5l1.3 4.5c-2.2 2.1-3.8 4-4.7 5.5-.5.8-.5 1.9 0 2.8.6.9 1.5 1.3 2.5 1.2 1.6 0 1.8-.8 1.9-1.2.3-1.4.8-3.2 2.8-4.5l2.4-1.7c1.5-1.3 3.8 2.7 2.3 3.6l-2.4 1.6c-.6.4-.7.7-1 2-.7 2.6-2.8 4.2-5.7 4.5h-1.5c-2-.4-3.7-1.5-4.8-3.3a7 7 0 010-7.2 37 37 0 016.9-7.8"/></g></g></svg>