<svg xmlns="http://www.w3.org/2000/svg" width="156" height="129" viewBox="0 0 156 129"><g fill="none" fill-rule="evenodd"><path fill="#FBB03B" d="M33.1 15l19 .8v34.4L32.9 32z"/><path fill="#F15A24" d="M14 31.4l18.8 1.8L52 52.9l-38.7-.5z"/><path fill="#E6E6E6" d="M32.4 67.8h12.4l2.5 8.7 5.8 7 5.4 2.3 7 1.3 7.7-1.3 1.6-.3.9 2.7 2.3 3.6 4 3.6-9.6 4.1-12-.3-10.7-3-8.3-6.3-4.6-5.7-3.7-9.5zm96.4 48.6l-11.1-11 6.2-6.3 11.1 11.1zM85 96L96 84.8l6.3 6.3L91 102z"/><path stroke="#666" stroke-linecap="round" stroke-width="3.9" d="M65.5 32v14.7A19.6 19.6 0 1146 66.4H31.2A34.3 34.3 0 1065.5 32z"/><path stroke="#666" stroke-linecap="round" stroke-width="3.9" d="M96.6 83.2l27 27.1a9.1 9.1 0 010 12.9l-.3.4a9 9 0 01-12.8 0L83.3 96.4"/><path stroke="#666" stroke-linecap="round" stroke-width="3.9" d="M117.7 102.8l19.7-19.6a9.1 9.1 0 0112.8 0l.4.3a9 9 0 010 12.9l-27.2 27"/><path stroke="#666" stroke-linecap="round" stroke-width="4.3" d="M135.5 84.2v-34m18.2 0v38.3a9 9 0 01-.2 1.9"/><path stroke="#666" stroke-linecap="round" stroke-width="3.9" d="M75.7 84.2c0 .8 0 3.7 2 6.3 3 3.8 7.5 3.4 8 3.4"/><path stroke="#F7931E" stroke-width="4.3" d="M13.2 31.7v21.5H53V14.3H31zm0 21.5L53 14.3"/><path fill="#F7931E" d="M13.2 31.7l20 2-2-19.4"/><path stroke="#F7931E" stroke-width="4.3" d="M13.2 31.7l20 2-2-19.4M33.1 33.7l20 19.5"/><path stroke="#F7931E" stroke-linecap="round" stroke-width="4.3" d="M15.8 17L7.2 8.2m17 1l-2.1-6.1M8.4 24.6l-6.2-2.4"/><path fill="#E6E6E6" d="M147.9 90.4a4.1 4.1 0 10-8.3 0 4.1 4.1 0 008.3 0M121 117.2a4.1 4.1 0 10-8.2 0 4.1 4.1 0 008.3 0m-32-32a4.1 4.1 0 10-8.3 0 4.1 4.1 0 008.2 0"/></g></svg>