<svg xmlns="http://www.w3.org/2000/svg" width="128" height="102" viewBox="0 0 128 102"><g fill="none" fill-rule="evenodd"><path stroke="#666" stroke-linecap="round" stroke-width="3.9" d="M10.5 23.8c4.1-2.5 9.7-4.2 16.3-5M114.2 44c8.3 7.4 12.5 15.2 10.6 22.1-.9 3.3-3 6-6.2 8.3"/><path fill="#FFF" d="M113.5 50.6a49 49 0 11-98 0 49 49 0 0198 0"/><path stroke="#B3B3B3" stroke-linecap="round" stroke-width="3.2" d="M113.5 50.6a49 49 0 11-98 0 49 49 0 0198 0z"/><path fill="#E6E6E6" d="M92.5 42.1a9.5 9.5 0 11-19 0 9.5 9.5 0 0119 0M55.5 63a3.5 3.5 0 11-6.8-1.3 3.5 3.5 0 016.9 1.3"/><path fill="#F7931E" d="M121.5 79.6a17 17 0 11-34 0 17 17 0 0134 0"/><path fill="#F15A24" d="M97.5 79.6a17 17 0 0112-16.2 17 17 0 100 32.5 17 17 0 01-12-16.3"/><path stroke="#666" stroke-linecap="round" stroke-width="3.9" d="M101.2 80.5c-4.3.7-9 1-14.1.8"/><path fill="#E6E6E6" d="M52.5 4.6c-4.4 1-12 3.6-19.2 10A50.5 50.5 0 0017 50.2 48 48 0 0047.7 95a67.6 67.6 0 01-13.2-59.7l.7.1c2.7 0 4.8-2.2 4.8-5a5 5 0 00-2.4-4.2A66.9 66.9 0 0152.5 4.6"/><path stroke="#666" stroke-linecap="round" stroke-width="3.9" d="M87 81.3a130 130 0 01-30.7-4.5c-33.8-9.1-58-28.6-53.9-43.5 1-4 3.9-7 8-9.5"/></g></svg>