<svg xmlns="http://www.w3.org/2000/svg" xmlns:xlink="http://www.w3.org/1999/xlink" width="148" height="122" viewBox="0 0 148 122"><defs><path id="a" d="M0 0h46.3v35.7H0z"/><path id="c" d="M.3.2h20v20H.3z"/></defs><g fill="none" fill-rule="evenodd"><path fill="#F15A24" d="M41 82.8S34 81.7 26 86c-8 4.3-13.5 7.9-13.5 7.9s11.9.9 15.7 2.8c0 0-1.6 7.6-22.8 14.2 0 0 15.3 7.1 30.5-1.3 15.1-8.5 14-16.6 14-16.6L41 82.8z"/><path fill="#E6E6E6" d="M36.8 65.3L15.2 49.5l6.7-9.2L43.5 56zm39 45L60.8 88l9-5.9 14.8 22.4z"/><g transform="translate(0 76.757)"><mask id="b" fill="#fff"><use xlink:href="#a"/></mask><path fill="#F7931E" d="M0 32.5s15.9 8.2 31.6-1.5c15.7-9.8 14.6-19 14.6-19L37 .1S29.7-1 21.3 4C13 8.8 12.4 17 12.4 17s7.3-3.1 11.3-1c0 0-1.7 8.8-23.7 16.4" mask="url(#b)"/></g><path stroke="#666" stroke-linecap="round" stroke-width="4.3" d="M34.5 64l-18-12.4a2.6 2.6 0 01-.4-3.8C19.7 43.7 28.4 35 38 33.7c12.7-1.9 26.3-1.7 29.3-2.4M61 90.7l12.5 17.9a2.6 2.6 0 003.7.4c4.2-3.6 12.7-12.2 14.1-21.8 1.9-12.7 1.7-26.4 2.5-29.3"/><path fill="#FFF" d="M54.3 94.2L30.7 70.6a2 2 0 010-2.8l53.5-53.5c1.9-1.9 4.1-3.3 6.6-4.3 7.6-2.8 24-8.4 28.5-4 4 3.9 0 18.3-2.5 25.7-1 2.8-2.5 5.3-4.6 7.4L57.1 94.2a2 2 0 01-2.8 0"/><path stroke="#666" stroke-linecap="round" stroke-width="3.9" d="M54.3 94.2L30.7 70.6a2 2 0 010-2.8l53.5-53.5c1.9-1.9 4.1-3.3 6.6-4.3 7.6-2.8 24-8.4 28.5-4 4 3.9 0 18.3-2.5 25.7-1 2.8-2.5 5.3-4.6 7.4L57.1 94.2a2 2 0 01-2.8 0z"/><path stroke="#666" stroke-linecap="round" stroke-width="4.3" d="M91.8 22a7.6 7.6 0 0113 5.4c0 1.9-.7 3.6-1.8 5"/><path stroke="#B3B3B3" stroke-linecap="round" stroke-width="3.9" d="M63.8 78.8l-8-8m15.3.6l-4-4"/><g transform="translate(48 .757)"><mask id="d" fill="#fff"><use xlink:href="#c"/></mask><path fill="#E6E6E6" d="M19.7 3.6l-16 16a2 2 0 01-2.8 0 2 2 0 010-2.7l16-16a2 2 0 012.8 0c.8.7.8 1.9 0 2.7" mask="url(#d)"/></g><path fill="#E6E6E6" d="M57.7 115.8l-5.4 5.4a2 2 0 01-2.7-2.8L55 113a2 2 0 012.7 2.8M44.4 11.3L39 16.7a2 2 0 01-2.8 0 2 2 0 010-2.7l5.4-5.4a2 2 0 012.8 0c.7.7.7 2 0 2.7m102.5 20.5L115 63.7a2 2 0 01-2.7 0 2 2 0 010-2.7l31.9-32a2 2 0 012.7 0c.8.8.8 2 0 2.8"/></g></svg>