<svg xmlns="http://www.w3.org/2000/svg" xmlns:xlink="http://www.w3.org/1999/xlink" width="132" height="132" viewBox="0 0 132 132"><defs><path id="a" d="M.4 1h10.8v10.8H.4z"/><path id="c" d="M.4 1h7v10.8h-7z"/></defs><g fill="none" fill-rule="evenodd"><path fill="#E6E6E6" d="M96.4 18.2l-10-9.8s-11.2 9.9-7.5 23c3.6 13 10 17.8 10 17.8s-5.6-20.8 7.5-31M63.6 84.8c-1-1-6.5-7.3-5.6-16.5A23.2 23.2 0 0169.6 51s-13.7-4.2-18.4 4c-4.6 8.2-4.2 9.7-4.2 9.7a17 17 0 000 4.4c.7 6.4 4.8 10.4 5.6 11 4.4 4.1 9.5 4.6 11 4.7"/><path stroke="#666" stroke-linecap="round" stroke-width="3.9" d="M104.8 27.4L123.2 9m-91.9 91.9l9-9m32.6-39.7l8.6-8.7 6 6-8.4 8.5M57.3 84.4L45 96.7l-9.6-9.5 11.8-11.8M34.1 104l-6.9 6.9-5.9-6 6.9-6.8z"/><g transform="translate(120 .028)"><mask id="b" fill="#fff"><use xlink:href="#a"/></mask><path fill="#F7931E" d="M11.2 6.4a5.4 5.4 0 11-10.8 0 5.4 5.4 0 0110.8 0" mask="url(#b)"/></g><g transform="translate(120 .028)"><mask id="d" fill="#fff"><use xlink:href="#c"/></mask><path fill="#F15A24" d="M3.6 6.4c0-2.5 1.6-4.5 3.8-5.2a5.4 5.4 0 100 10.3 5.4 5.4 0 01-3.8-5.1" mask="url(#d)"/></g><path stroke="#666" stroke-linecap="round" stroke-width="3" d="M23.6 27.4L11.3 15m39.3 39.3L28.3 32m58 58l-10-10m27.2 27.2L91 94.7m25.5 25.5l-8.1-8"/><path fill="#F7931E" d="M91 90.5l-6.7-6.8c-1-1-1-2.8 0-3.8l6.8-6.8c1-1 2.8-1 3.8 0l6.8 6.8c1 1 1 2.8 0 3.8l-6.8 6.8c-1 1-2.8 1-3.8 0"/><path fill="#F15A24" d="M103.2 102.6l-6.8-6.8c-1-1-1-2.8 0-3.8l6.8-6.8c1-1 2.8-1 3.9 0l6.7 6.8c1 1 1 2.8 0 3.8l-6.7 6.8c-1.1 1-2.8 1-4 0"/><path fill="#F7931E" d="M115.3 114.7l-6.7-6.7c-1-1-1-2.8 0-3.9l6.7-6.7c1.1-1 2.8-1 4 0l6.7 6.7c1 1 1 2.8 0 3.9l-6.8 6.7c-1 1.1-2.8 1.1-3.9 0M75.6 106l-6.8-6.8c-1-1-1-2.8 0-3.8l6.8-6.8c1-1 2.8-1 3.9 0l6.7 6.8c1 1 1 2.8 0 3.8l-6.7 6.8c-1.1 1-2.8 1-4 0m12.2 12l-6.7-6.7c-1.1-1-1.1-2.8 0-3.8l6.7-6.8c1-1 2.8-1 3.9 0l6.7 6.8c1 1 1 2.8 0 3.8l-6.7 6.8c-1.1 1-2.8 1-3.9 0"/><path fill="#F15A24" d="M99.8 130.2l-6.7-6.7c-1-1-1-2.8 0-3.9l6.7-6.7c1.1-1.1 2.8-1.1 4 0l6.7 6.7c1 1 1 2.8 0 3.9l-6.8 6.7c-1 1-2.8 1-3.9 0"/><path fill="#F7931E" d="M23 22.4l-6.7-6.7c-1-1-1-2.8 0-3.9L23 5.1c1.1-1 2.8-1 4 0l6.7 6.7c1 1 1 2.8 0 3.9l-6.8 6.7c-1 1.1-2.8 1.1-3.9 0"/><path fill="#F15A24" d="M35.2 34.5l-6.8-6.7c-1-1-1-2.8 0-3.9l6.8-6.7c1-1 2.7-1 3.8 0l6.8 6.7c1 1.1 1 2.8 0 3.9L39 34.5c-1 1.1-2.8 1.1-3.8 0"/><path fill="#F7931E" d="M47.3 46.7l-6.7-6.8c-1.1-1-1.1-2.8 0-3.8l6.7-6.8c1-1 2.8-1 3.9 0l6.7 6.8c1 1 1 2.8 0 3.8l-6.7 6.8c-1.1 1-2.8 1-3.9 0M7.5 37.9L.8 31.2c-1-1-1-2.8 0-3.9l6.7-6.7c1.1-1.1 2.8-1.1 4 0l6.7 6.7c1 1 1 2.8 0 3.9l-6.8 6.7c-1 1-2.8 1-3.9 0M19.7 50l-6.8-6.7c-1-1-1-2.8 0-3.9l6.8-6.7c1-1 2.8-1 3.8 0l6.8 6.7c1 1 1 2.8 0 3.9L23.5 50c-1 1.1-2.8 1.1-3.8 0"/><path fill="#F15A24" d="M31.8 62.2l-6.7-6.8c-1.1-1-1.1-2.8 0-3.8l6.7-6.8c1-1 2.8-1 3.9 0l6.7 6.8c1 1 1 2.8 0 3.8l-6.7 6.8c-1.1 1-2.8 1-3.9 0"/><path stroke="#666" stroke-linecap="round" stroke-width="3.9" d="M81 67.4a17.5 17.5 0 11-34.9 0 17.5 17.5 0 0135 0zm19.5-43.7L122.7 46l-.8 1c-10.1 10-26.4 10-36.5 0m0 0h0c-10.1-10.2-10.1-26.5 0-36.6l.8-.9 8.5 8.5"/></g></svg>