<svg xmlns="http://www.w3.org/2000/svg" xmlns:xlink="http://www.w3.org/1999/xlink" width="430" height="626" viewBox="0 0 430 626">
    <defs>
        <path id="prefix__a" d="M0 0.399L9.501 0.399 9.501 9.9 0 9.9z"/>
    </defs>
    <g fill="none" fill-rule="evenodd">
        <path fill="#FEA7AF" d="M14.558 110.704L12.35 110.355 10.302 111.251 10.653 109.043 9.756 106.995 11.964 107.346 14.012 106.448 13.662 108.656z"/>
        <g>
            <path fill="#FEA7AF" d="M28.998 9.079L24.63 8.386 20.577 10.16 21.27 5.791 19.497 1.739 23.866 2.432 27.918 0.659 27.225 5.027z" transform="translate(0 .342)"/>
            <g transform="translate(0 .342) translate(0 196)">
                <mask id="prefix__b" fill="#fff">
                    <use xlink:href="#prefix__a"/>
                </mask>
                <path fill="#FEA7AF" d="M9.501 8.819L5.133 8.126 1.081 9.9 1.772 5.531 -0.001 1.479 4.369 2.172 8.421 0.399 7.729 4.767z" mask="url(#prefix__b)"/>
            </g>
            <path fill="#FEA7AF" d="M147.642 83.281L143.874 82.683 140.379 84.213 140.977 80.445 139.448 76.95 143.215 77.547 146.71 76.017 146.113 79.785z" transform="translate(0 .342)"/>
        </g>
        <path fill="#FEA7AF" d="M320.841 398.745L317.471 398.211 314.346 399.578 314.88 396.209 313.513 393.083 316.882 393.618 320.008 392.25 319.473 395.62zM188.538 521.402L186.33 521.052 184.282 521.948 184.633 519.74 183.736 517.692 185.944 518.043 187.992 517.146 187.642 519.354zM259.289 415.025L257.081 414.675 255.033 415.571 255.384 413.363 254.487 411.315 256.695 411.666 258.743 410.769 258.393 412.977z"/>
        <g fill="#FEA7AF">
            <path d="M228.484 8.686L224.116 7.993 220.063 9.766 220.756 5.398 218.983 1.346 223.352 2.039 227.404.266 226.711 4.634zM16.603 56.917L12.235 56.224 8.182 57.997 8.875 53.629 7.102 49.576 11.471 50.27 15.523 48.496 14.83 52.864zM5.218 84.303L3.149 83.975 1.228 84.815 1.557 82.744.716 80.824 2.786 81.154 4.706 80.313 4.378 82.383z" transform="translate(60 245.342)"/>
        </g>
        <path fill="#FFF" d="M121.584 419.859L119.513 419.531 117.594 420.371 117.921 418.301 117.082 416.381 119.15 416.71 121.072 415.869 120.743 417.939z"/>
        <g fill="#FEA7AF">
            <path d="M155.696 259.195L151.928 258.598 148.433 260.127 149.031 256.36 147.502 252.864 151.27 253.463 154.764 251.933 154.167 255.701zM116.11 195.147L113.764 194.775 111.588 195.727 111.961 193.381 111.008 191.206 113.354 191.578 115.53 190.626 115.158 192.971zM5.652 4.647L3.306 4.275 1.13 5.227 1.502 2.881.549.705 2.896 1.077 5.072.125 4.7 2.471z" transform="translate(44 141.342)"/>
        </g>
        <path fill="#FEA7AF" d="M326.688 621.436L324.479 621.087 325.376 623.134 325.026 625.342 327.073 624.446 329.282 624.797 328.385 622.748 328.735 620.541zM400.033 518.419L397.825 518.068 395.777 518.965 396.128 516.757 395.231 514.709 397.439 515.059 399.487 514.163 399.137 516.371z"/>
        <g fill="#FEA7AF">
            <path d="M97.228 9.079L92.859 8.387 88.807 10.16 89.5 5.791 87.727 1.739 92.095 2.433 96.148.659 95.455 5.027zM8.44 155.589L4.672 154.991 1.177 156.521 1.775 152.753.246 149.258 4.013 149.856 7.508 148.326 6.911 152.094z" transform="translate(332 348.342)"/>
        </g>
        <path fill="#FEA7AF" d="M350.487 91.13L347.117 90.595 343.992 91.963 344.526 88.594 343.158 85.468 346.528 86.003 349.654 84.635 349.119 88.005zM218.183 213.787L215.975 213.437 213.927 214.333 214.278 212.125 213.381 210.077 215.589 210.428 217.637 209.531 217.287 211.739zM288.934 107.41L286.726 107.06 284.678 107.956 285.029 105.748 284.132 103.7 286.34 104.051 288.388 103.154 288.038 105.362zM229.341 92.922L225.573 92.324 222.078 93.854 222.676 90.086 221.147 86.591 224.914 87.189 228.409 85.659 227.812 89.427zM427.084 207.444L424.876 207.094 425.772 209.142 425.423 211.35 427.47 210.454 429.678 210.804 428.781 208.756 429.132 206.548zM370.086 196.316L366.317 195.718 362.822 197.248 363.421 193.48 361.892 189.985 365.659 190.583 369.154 189.053 368.557 192.821z"/>
    </g>
</svg>
