<svg xmlns="http://www.w3.org/2000/svg" xmlns:xlink="http://www.w3.org/1999/xlink" viewBox="0 0 810.52 670.72"><defs><linearGradient id="k" x1="129.87" y1="808.44" x2="996.12" y2="-221.12" gradientUnits="userSpaceOnUse"><stop offset=".09" stop-color="#f05a11"/><stop offset=".4" stop-color="#f05c11"/><stop offset=".49" stop-color="#f26b14"/><stop offset=".67" stop-color="#f5811a"/><stop offset=".85" stop-color="#f68e1d"/><stop offset="1" stop-color="#f7931e"/></linearGradient><linearGradient id="b" x1="2161.69" y1="-4053.85" x2="2175.31" y2="-4053.85" gradientTransform="rotate(62.39 -2295.087 -3352.812)" gradientUnits="userSpaceOnUse"><stop offset="0" stop-color="#fbb03b"/><stop offset=".99" stop-color="#f15a24"/></linearGradient><linearGradient id="q" x1="389.04" y1="267.28" x2="397.45" y2="283.42" xlink:href="#b"/><linearGradient id="s" x1="398.7" y1="368.49" x2="413.31" y2="325.99" xlink:href="#b"/><linearGradient id="t" x1="422.45" y1="332.71" x2="416.25" y2="321.72" xlink:href="#b"/><linearGradient id="d" x1="2207.09" y1="-3989.87" x2="2229.23" y2="-3989.87" gradientTransform="rotate(62.39 -2295.087 -3352.812)" gradientUnits="userSpaceOnUse"><stop offset=".01" stop-color="#de3dbf"/><stop offset="1" stop-color="#67219e"/></linearGradient><linearGradient id="v" x1="520.71" y1="301.18" x2="479.14" y2="299.96" xlink:href="#b"/><linearGradient id="w" x1="2173.03" y1="-4070.33" x2="2205.13" y2="-4070.33" xlink:href="#b"/><linearGradient id="y" x1="1702" y1="-585.68" x2="1724.97" y2="-535.23" gradientTransform="rotate(26.95 -735.155 -2866.653)" xlink:href="#d"/><linearGradient id="A" x1="1711.48" y1="-529.11" x2="1629.29" y2="-563.24" gradientTransform="rotate(26.95 -735.155 -2866.653)" xlink:href="#b"/><linearGradient id="B" x1="2155.69" y1="-4008.97" x2="2176.12" y2="-4008.99" gradientTransform="rotate(62.39 -2295.087 -3352.812)" gradientUnits="userSpaceOnUse"><stop offset=".01" stop-color="#f15a24"/><stop offset="1" stop-color="#fbb03b"/></linearGradient><linearGradient id="C" x1="2198.84" y1="-4018.72" x2="2236.51" y2="-4018.72" xlink:href="#b"/><linearGradient id="D" x1="2215.87" y1="-4009.09" x2="2236.51" y2="-4009.09" xlink:href="#b"/><linearGradient id="E" x1="2266.12" y1="-4061.24" x2="2210.35" y2="-4058.22" xlink:href="#b"/><linearGradient id="F" x1="2181.6" y1="-4056.96" x2="2204.46" y2="-4056.98" xlink:href="#b"/><linearGradient id="G" x1="1658.45" y1="-507.76" x2="1703.06" y2="-507.76" gradientTransform="rotate(26.95 -735.155 -2866.653)" xlink:href="#b"/><linearGradient id="H" x1="1754.71" y1="-592.2" x2="1745.13" y2="-599.05" gradientTransform="rotate(26.95 -735.155 -2866.653)" xlink:href="#d"/><linearGradient id="I" x1="2188.27" y1="-4120.96" x2="2207.04" y2="-4122.23" xlink:href="#b"/><linearGradient id="J" x1="2196.08" y1="-4023.95" x2="2194.05" y2="-3965.73" xlink:href="#b"/><linearGradient id="f" x1="-8971.35" y1="-3542.51" x2="-8937.82" y2="-3542.51" gradientTransform="rotate(-145.88 -3710.361 -3102.284)" gradientUnits="userSpaceOnUse"><stop offset=".01" stop-color="#fea7af"/><stop offset=".99" stop-color="#f47e19" stop-opacity="0"/></linearGradient><linearGradient id="g" x1="-8970.92" y1="-3542.51" x2="-8950.37" y2="-3542.51" gradientTransform="rotate(-145.88 -3710.361 -3102.284)" gradientUnits="userSpaceOnUse"><stop offset=".01" stop-color="#fea7af"/><stop offset=".99" stop-color="#ea47ac" stop-opacity="0"/></linearGradient><linearGradient id="L" x1="-9113.01" y1="-3337.57" x2="-9079.49" y2="-3337.57" xlink:href="#f"/><linearGradient id="M" x1="-9112.58" y1="-3337.57" x2="-9092.04" y2="-3337.57" xlink:href="#g"/><linearGradient id="O" x1="-8764.25" y1="-3516.93" x2="-8730.72" y2="-3516.93" xlink:href="#f"/><linearGradient id="P" x1="-8763.82" y1="-3516.93" x2="-8743.27" y2="-3516.93" xlink:href="#g"/><linearGradient id="S" x1="-8927.82" y1="-3555.28" x2="-8872.78" y2="-3555.28" xlink:href="#f"/><linearGradient id="h" x1="-8927.11" y1="-3555.27" x2="-8893.38" y2="-3555.28" gradientTransform="rotate(-145.88 -3710.361 -3102.284)" gradientUnits="userSpaceOnUse"><stop offset=".01" stop-color="#f15a24"/><stop offset=".99" stop-color="#c1272d" stop-opacity="0"/></linearGradient><linearGradient id="T" x1="-9267.49" y1="-3431.98" x2="-9212.45" y2="-3431.98" xlink:href="#f"/><linearGradient id="U" x1="-9266.78" y1="-3431.96" x2="-9233.05" y2="-3431.97" xlink:href="#h"/><linearGradient id="i" x1="-9204.64" y1="-3616.57" x2="-9131.56" y2="-3616.57" gradientTransform="rotate(-145.88 -3710.361 -3102.284)" gradientUnits="userSpaceOnUse"><stop offset=".01" stop-color="#fea7af"/><stop offset=".99" stop-color="#f47817" stop-opacity="0"/></linearGradient><linearGradient id="V" x1="-9203.7" y1="-3616.57" x2="-9158.92" y2="-3616.57" xlink:href="#h"/><linearGradient id="W" x1="-9156.33" y1="-3631.15" x2="-9122.81" y2="-3631.15" xlink:href="#g"/><linearGradient id="X" x1="-9155.9" y1="-3631.15" x2="-9135.36" y2="-3631.15" xlink:href="#g"/><linearGradient id="Y" x1="-9165.11" y1="-3244.28" x2="-9092.03" y2="-3244.28" xlink:href="#i"/><linearGradient id="Z" x1="-9164.17" y1="-3244.28" x2="-9119.39" y2="-3244.28" xlink:href="#h"/><linearGradient id="aa" x1="-9116.8" y1="-3258.86" x2="-9083.28" y2="-3258.86" xlink:href="#g"/><linearGradient id="ab" x1="-9116.37" y1="-3258.86" x2="-9095.83" y2="-3258.86" xlink:href="#g"/><linearGradient id="ac" x1="-9464.32" y1="-3504.39" x2="-9409.29" y2="-3504.39" xlink:href="#f"/><linearGradient id="ad" x1="-9463.62" y1="-3504.37" x2="-9429.89" y2="-3504.39" xlink:href="#h"/><linearGradient id="ae" x1="-9338.79" y1="-3289.36" x2="-9283.75" y2="-3289.36" xlink:href="#f"/><radialGradient id="a" cx="919.46" cy="411.02" r="214.97" gradientUnits="userSpaceOnUse"><stop offset="0" stop-color="#f7931e"/><stop offset=".99" stop-color="#f7931e"/></radialGradient><radialGradient id="m" cx="197.65" cy="119.29" r="87.99" xlink:href="#a"/><radialGradient id="n" cx="388.42" cy="316.39" r="356.81" gradientUnits="userSpaceOnUse"><stop offset="0" stop-color="#f05a11"/><stop offset=".22" stop-color="#f26914"/><stop offset=".65" stop-color="#f7911d"/><stop offset=".67" stop-color="#f7931e"/></radialGradient><radialGradient id="o" cx="-1439.02" cy="9319.41" r="118.64" gradientTransform="matrix(.7 0 0 .45 1432.82 -3886.13)" gradientUnits="userSpaceOnUse"><stop offset="0" stop-color="#682a00"/><stop offset=".07" stop-color="#7f4b27"/><stop offset=".16" stop-color="#9d7459"/><stop offset=".26" stop-color="#b79a86"/><stop offset=".37" stop-color="#cdb9ab"/><stop offset=".47" stop-color="#dfd2ca"/><stop offset=".58" stop-color="#ede6e1"/><stop offset=".7" stop-color="#f7f4f2"/><stop offset=".83" stop-color="#fdfcfc"/><stop offset="1" stop-color="#fff"/></radialGradient><radialGradient id="p" cx="-1390.72" cy="9305.91" r="118.64" gradientTransform="matrix(.7 0 0 .45 1427.91 -3898.68)" gradientUnits="userSpaceOnUse"><stop offset="0" stop-color="#4d1d00"/><stop offset=".07" stop-color="#684027"/><stop offset=".16" stop-color="#8b6c59"/><stop offset=".26" stop-color="#aa9386"/><stop offset=".37" stop-color="#c4b5ab"/><stop offset=".47" stop-color="#dad0ca"/><stop offset=".58" stop-color="#eae5e1"/><stop offset=".7" stop-color="#f6f3f2"/><stop offset=".83" stop-color="#fdfcfc"/><stop offset="1" stop-color="#fff"/></radialGradient><radialGradient id="r" cx="2155.03" cy="-4003.24" r="27.71" gradientTransform="rotate(62.39 -2295.087 -3352.812)" gradientUnits="userSpaceOnUse"><stop offset=".01" stop-color="#a02cc2"/><stop offset="1" stop-color="#371582"/></radialGradient><radialGradient id="c" cx="2629.26" cy="-4855.72" r="15.06" gradientTransform="matrix(.88 0 0 .45 -1985.58 2479.63)" gradientUnits="userSpaceOnUse"><stop offset="0" stop-color="#371582"/><stop offset=".99" stop-color="#a02cc2"/></radialGradient><radialGradient id="u" cx="2685.48" cy="-4853.67" r="15.06" gradientTransform="matrix(.88 0 0 .45 -2013.05 2523.14)" xlink:href="#c"/><radialGradient id="z" cx="3274.16" cy="-4075.74" r="91.56" gradientTransform="matrix(.36 .68 -.89 .46 -4367.21 -80.81)" gradientUnits="userSpaceOnUse"><stop offset="0" stop-color="#67219e"/><stop offset=".99" stop-color="#de3dbf"/></radialGradient><radialGradient id="e" cx="-29.76" cy="728.64" r="5.42" gradientTransform="rotate(-7.49 -3875.93 -3187.885)" gradientUnits="userSpaceOnUse"><stop offset=".01" stop-color="#de3dbf"/><stop offset=".1" stop-color="#b03097"/><stop offset=".22" stop-color="#822470"/><stop offset=".34" stop-color="#5a194d"/><stop offset=".46" stop-color="#391031"/><stop offset=".58" stop-color="#20091c"/><stop offset=".71" stop-color="#0e040c"/><stop offset=".84" stop-color="#030103"/><stop offset="1"/></radialGradient><radialGradient id="K" cx="47.03" cy="916.5" r="5.42" xlink:href="#e"/><radialGradient id="N" cx="-167.6" cy="571.98" r="5.42" xlink:href="#e"/><radialGradient id="Q" cx="-2276.01" cy="-2472.95" r="5.42" gradientTransform="rotate(-97.49 374.324 -2433.222)" xlink:href="#e"/><radialGradient id="R" cx="-2478.09" cy="-2477.3" r="5.42" gradientTransform="rotate(-97.49 374.324 -2433.222)" xlink:href="#e"/><clipPath id="j"><path fill="none" d="M0 0h1621.04v669.45H0z"/></clipPath><clipPath id="l"><path transform="rotate(26.95 285.175 258.798)" fill="none" d="M-5.11 72.4h580.67v372.91H-5.11z"/></clipPath><clipPath id="x"><path d="M498.29 260.31l3.58-6.41a5.08 5.08 0 00-3.94-7.53l-7.29-.72a73.57 73.57 0 00-41.32 8l-4.47 2.35c.48-.45 1-.9 1.43-1.37l4.21-4.19a2 2 0 00-1.29-3.37 1.81 1.81 0 00-.46 0l-5.84 1.07a70.25 70.25 0 00-20 6.87l-80.66 42.19-15 3 4 7.62-2.48-4.82-.81.42 5.62 10.76-1.57.82 18.83 36 .71-.38 5.71 10.92.81-.43-.45-.86 2.12 4.05 11-10.57 80.66-42.18a70.67 70.67 0 0017-12.48l4.21-4.19a2 2 0 00-1.3-3.38 2.42 2.42 0 00-.45 0l-5.84 1.06c-1.5.28-3 .61-4.45 1l7.47-3.91a73.52 73.52 0 0030.26-29.34z" fill="none"/></clipPath></defs><g clip-path="url(#j)" data-name="Warstwa 1"><path d="M44.57-4.13S30.08 50.66 72 79s44.18 27.36 49.81 58.56 8.45 48.51 43.07 55.84 71.16 1.71 88.15 30 58.8 82.78 146.97 50.28 22.43 50.58 22.43 50.58c-5.19 1.91-19.37 8-28.19 23.08-11.09 19-8.61 43.68 2.95 57.9 7.19 8.86 12.31 6.77 20.42 16 14.84 16.94 10.27 34.66 17.13 49.58 3.7 8 13 17.62 75.56 32.9 64.33 15.71 64.36 7.58 86.31 18.35 42.62 20.92 36 48.44 74.24 64.34 27.38 11.4 42.09-1.28 69.43-.69a89.15 89.15 0 0116.23 1.61 87.49 87.49 0 0111.91 3.32c39.47 14.07 39 45.88 69.6 64a72.17 72.17 0 0016.24 7.06h55.07c15.31-3.62 27.88-9.2 34.11-13.06a134.22 134.22 0 0013.44-9.65c9.07-8.7 11.33-16.9 21.93-24 45.48-30.35 111.24 48.93 162.55 29 52-20.23 14.57-111.07 83.33-183.43 53-55.82 132.36-56.39 135.72-102.2 1.5-20.54-13.41-34.49-4.09-53.14 9.53-19.07 31.79-17.8 52.33-30.25 33-20 34.62-59.09 49.87-119.37 18-71 34.24-135.33 67.67-162.6L30-118.5 5.53-4.13z" fill="url(#k)"/><g opacity=".32"><g opacity=".11" fill="#a630b0" clip-path="url(#l)"><path d="M235.31 2.15a1.27 1.27 0 11-.56-1.7 1.27 1.27 0 01.56 1.7zM283.3 26.55a1.27 1.27 0 11-.56-1.71 1.27 1.27 0 01.56 1.71zM331.28 50.94a1.26 1.26 0 11-.55-1.7 1.27 1.27 0 01.55 1.7zM379.27 75.33a1.26 1.26 0 01-1.7.56 1.27 1.27 0 111.7-.56zM427.26 99.73a1.27 1.27 0 01-2.26-1.15 1.27 1.27 0 112.26 1.15zM475.25 124.12a1.27 1.27 0 11-.56-1.7 1.27 1.27 0 01.56 1.7zM523.24 148.52a1.27 1.27 0 11-.56-1.71 1.27 1.27 0 01.56 1.71zM571.23 172.91a1.27 1.27 0 11-.56-1.7 1.27 1.27 0 01.56 1.7zM619.21 197.3a1.26 1.26 0 11-.55-1.7 1.26 1.26 0 01.55 1.7zM116-.68a1.26 1.26 0 01-1.7.56 1.27 1.27 0 01-.56-1.71 1.26 1.26 0 011.7-.55 1.26 1.26 0 01.56 1.7zM164 23.72a1.27 1.27 0 11-.6-1.72 1.27 1.27 0 01.6 1.72zM212 48.11a1.27 1.27 0 11-2.31-1.11 1.27 1.27 0 012.31 1.11zM259.93 72.5a1.26 1.26 0 11-.55-1.7 1.25 1.25 0 01.55 1.7zM307.92 96.9a1.27 1.27 0 01-2.26-1.15 1.27 1.27 0 112.26 1.15zM355.91 121.29a1.27 1.27 0 11-.55-1.7 1.26 1.26 0 01.55 1.7zM403.9 145.68a1.27 1.27 0 11-.56-1.7 1.26 1.26 0 01.56 1.7zM451.89 170.08a1.27 1.27 0 11-.56-1.7 1.26 1.26 0 01.56 1.7zM499.88 194.47a1.27 1.27 0 11-.56-1.7 1.28 1.28 0 01.56 1.7zM547.87 218.87a1.27 1.27 0 11-.56-1.71 1.27 1.27 0 01.56 1.71zM595.85 243.26a1.26 1.26 0 11-.55-1.7 1.26 1.26 0 01.55 1.7zM92.61 45.28a1.27 1.27 0 11-.56-1.7 1.26 1.26 0 01.56 1.7zM140.6 69.67A1.27 1.27 0 11140 68a1.27 1.27 0 01.6 1.67zM188.59 94.07a1.27 1.27 0 11-.56-1.71 1.27 1.27 0 01.56 1.71zM236.57 118.46a1.26 1.26 0 11-.55-1.7 1.27 1.27 0 01.55 1.7zM284.56 142.85a1.26 1.26 0 01-1.7.56 1.27 1.27 0 111.7-.56zM332.55 167.25a1.27 1.27 0 01-2.26-1.15 1.27 1.27 0 112.26 1.15zM380.54 191.64a1.27 1.27 0 11-.56-1.7 1.26 1.26 0 01.56 1.7zM428.53 216a1.27 1.27 0 11-.56-1.7 1.27 1.27 0 01.56 1.7zM476.52 240.43a1.27 1.27 0 11-.56-1.7 1.27 1.27 0 01.56 1.7zM524.5 264.82a1.26 1.26 0 11-.55-1.7 1.26 1.26 0 01.55 1.7zM572.49 289.22a1.26 1.26 0 01-1.7.55 1.27 1.27 0 111.7-.55zM69.25 91.24a1.27 1.27 0 11-.56-1.71 1.27 1.27 0 01.56 1.71zM117.24 115.63a1.27 1.27 0 01-1.71.55 1.26 1.26 0 011.15-2.25 1.27 1.27 0 01.56 1.7zM165.22 140a1.26 1.26 0 11-.55-1.7 1.25 1.25 0 01.55 1.7zM213.21 164.42a1.27 1.27 0 01-2.26-1.15 1.27 1.27 0 112.26 1.15zM261.2 188.81a1.27 1.27 0 11-.55-1.7 1.26 1.26 0 01.55 1.7zM309.19 213.2a1.27 1.27 0 11-.56-1.7 1.26 1.26 0 01.56 1.7zM357.18 237.6a1.27 1.27 0 11-.56-1.71 1.26 1.26 0 01.56 1.71zM405.17 262a1.27 1.27 0 11-.56-1.7 1.28 1.28 0 01.56 1.7zM453.16 286.39a1.27 1.27 0 01-2.26-1.15 1.26 1.26 0 011.7-.56 1.28 1.28 0 01.56 1.71zM501.14 310.78a1.26 1.26 0 11-.55-1.7 1.26 1.26 0 01.55 1.7zM549.13 335.17a1.26 1.26 0 01-1.7.56 1.27 1.27 0 111.15-2.26 1.26 1.26 0 01.55 1.7zM45.89 137.19a1.27 1.27 0 11-.56-1.7 1.28 1.28 0 01.56 1.7zM93.88 161.59a1.27 1.27 0 11-.56-1.71 1.27 1.27 0 01.56 1.71zM141.86 186a1.26 1.26 0 11-.55-1.7 1.26 1.26 0 01.55 1.7z"/><circle cx="188.72" cy="209.8" r="1.27"/><path d="M237.84 234.77a1.27 1.27 0 01-2.26-1.15 1.27 1.27 0 112.26 1.15zM285.83 259.16a1.27 1.27 0 11-.56-1.7 1.26 1.26 0 01.56 1.7zM333.82 283.55a1.27 1.27 0 11-.56-1.7 1.27 1.27 0 01.56 1.7zM381.81 308a1.27 1.27 0 11-.56-1.71 1.27 1.27 0 01.56 1.71zM429.79 332.34a1.26 1.26 0 11-.55-1.7 1.26 1.26 0 01.55 1.7zM477.78 356.74a1.26 1.26 0 01-1.7.55 1.27 1.27 0 111.7-.55zM525.77 381.13a1.27 1.27 0 11-.55-1.7 1.26 1.26 0 01.55 1.7zM22.53 183.15a1.27 1.27 0 11-.56-1.7 1.27 1.27 0 01.56 1.7zM70.51 207.54a1.25 1.25 0 01-1.7.56 1.27 1.27 0 111.7-.56zM118.5 231.94a1.26 1.26 0 01-1.7.55 1.27 1.27 0 111.7-.55zM166.49 256.33a1.27 1.27 0 11-.55-1.7 1.26 1.26 0 01.55 1.7zM214.48 280.72a1.27 1.27 0 11-.56-1.7 1.26 1.26 0 01.56 1.7zM262.47 305.12a1.27 1.27 0 11-.56-1.71 1.26 1.26 0 01.56 1.71zM310.46 329.51a1.27 1.27 0 11-2.26-1.15 1.27 1.27 0 012.26 1.15zM358.45 353.9a1.27 1.27 0 11-.56-1.7 1.27 1.27 0 01.56 1.7zM406.43 378.3a1.26 1.26 0 11-.55-1.7 1.26 1.26 0 01.55 1.7zM454.42 402.69a1.27 1.27 0 01-1.7.56 1.27 1.27 0 111.15-2.26 1.26 1.26 0 01.55 1.7zM502.41 427.09a1.27 1.27 0 11-.55-1.71 1.26 1.26 0 01.55 1.71zM47.15 253.5a1.26 1.26 0 11-.55-1.7 1.26 1.26 0 01.55 1.7zM95.14 277.89a1.26 1.26 0 01-1.7.56 1.27 1.27 0 111.7-.56zM143.13 302.29a1.27 1.27 0 01-2.26-1.15 1.27 1.27 0 112.26 1.15zM191.12 326.68a1.27 1.27 0 11-.56-1.7 1.26 1.26 0 01.56 1.7zM239.11 351.07a1.27 1.27 0 11-.56-1.7 1.27 1.27 0 01.56 1.7zM287.1 375.47a1.27 1.27 0 11-.56-1.71 1.27 1.27 0 01.56 1.71zM335.08 399.86a1.26 1.26 0 11-.55-1.7 1.27 1.27 0 01.55 1.7zM383.07 424.25a1.26 1.26 0 01-1.7.56 1.27 1.27 0 111.7-.56zM431.06 448.65a1.27 1.27 0 11-.55-1.7 1.26 1.26 0 01.55 1.7zM479.05 473a1.27 1.27 0 11-.56-1.7 1.27 1.27 0 01.56 1.7zM23.79 299.46a1.26 1.26 0 01-1.7.55 1.27 1.27 0 111.7-.55zM71.78 323.85a1.27 1.27 0 11-.55-1.7 1.26 1.26 0 01.55 1.7zM119.77 348.24a1.27 1.27 0 11-.56-1.7 1.26 1.26 0 01.56 1.7zM167.76 372.64a1.27 1.27 0 11-.56-1.71 1.26 1.26 0 01.56 1.71zM215.75 397a1.27 1.27 0 11-2.26-1.15 1.27 1.27 0 012.26 1.15zM263.74 421.42a1.27 1.27 0 11-.56-1.7 1.27 1.27 0 01.56 1.7zM311.72 445.82a1.26 1.26 0 11-.55-1.71 1.26 1.26 0 01.55 1.71zM359.71 470.21a1.27 1.27 0 11-.55-1.7 1.28 1.28 0 01.55 1.7zM407.7 494.61a1.27 1.27 0 11-.55-1.71 1.26 1.26 0 01.55 1.71zM455.69 519a1.27 1.27 0 11-.56-1.7 1.26 1.26 0 01.56 1.7zM.43 345.41a1.26 1.26 0 01-1.7.56 1.28 1.28 0 01-.56-1.71 1.27 1.27 0 011.71-.55 1.26 1.26 0 01.55 1.7zM48.42 369.81a1.27 1.27 0 11-.55-1.71 1.26 1.26 0 01.55 1.71zM96.41 394.2a1.27 1.27 0 11-.56-1.7 1.26 1.26 0 01.56 1.7zM144.4 418.59a1.27 1.27 0 11-.56-1.7 1.27 1.27 0 01.56 1.7zM192.39 443a1.27 1.27 0 11-.56-1.71 1.27 1.27 0 01.56 1.71zM240.37 467.38a1.26 1.26 0 11-.55-1.7 1.27 1.27 0 01.55 1.7zM288.36 491.77a1.26 1.26 0 01-1.7.56 1.27 1.27 0 111.7-.56zM336.35 516.17a1.27 1.27 0 01-2.26-1.15 1.27 1.27 0 112.26 1.15zM384.34 540.56a1.27 1.27 0 11-.56-1.7 1.27 1.27 0 01.56 1.7zM432.33 565a1.27 1.27 0 11-.56-1.71 1.27 1.27 0 01.56 1.71z"/></g></g><path d="M418.44 325.9a53.7 53.7 0 00-24.21 21.44c-11.09 19-8.61 43.68 2.95 57.9 7.19 8.86 12.31 6.77 20.42 16 14.84 16.94 10.27 34.66 17.13 49.58 3.7 8 13 17.62 75.56 32.9 64.33 15.71 64.36 7.58 86.31 18.35 31.72 15.56 36.2 34.79 52.15 50.16q19.38 8.82 42 18.88c16.32.8 29.55-5.82 49.5-5.39a89.15 89.15 0 0116.23 1.61 87.49 87.49 0 0111.91 3.32c39.47 14.07 39 45.88 69.6 64 38.29 22.74 90.37 3.32 105.42-6a134.22 134.22 0 0013.47-9.65c9.07-8.7 11.33-16.9 21.93-24 45.48-30.35 111.24 48.93 162.55 29 52-20.23 14.57-111.07 83.33-183.43 53-55.82 132.36-56.39 135.72-102.2 1.5-20.54-13.41-34.49-4.09-53.14 9.53-19.07 31.79-17.8 52.33-30.25 27.49-16.67 33.21-46.62 43.18-91-2.73-13.31-7.59-22.51-14.25-25.76-21.51-10.49-67 38.44-91.34 64.53-49.67 53.36-42.37 74.39-86.37 117.15-55.47 53.9-79.68 32.75-100.27 72.47-22.21 42.84-6.55 91.6-51.62 137-.55.55-1.2 1.2-2.13 2.1-41.58 39.77-101.41 33.3-190.89 22.24-62.11-7.67-81.14-17.49-96.29-29.93-13.6-11.18-10.74-14.61-30.74-34.8-30.48-30.75-49.56-50-73.63-51-36.76-1.48-63.7 40.55-97.77 35.46a57.68 57.68 0 01-14.39-4.07c-16-8.33-18.84-26.5-52.14-38.05-40.42-14-104.15-10.83-105-13.83a8 8 0 01-.31-2.12 8.39 8.39 0 01.6-2.87c8.87-25.24-46.68-73.68-26.85-106.6z" opacity=".7" fill="url(#a)"/><path d="M44.57-4.13S30.08 50.66 72 79s44.18 27.36 49.81 58.56 8.45 48.51 43.07 55.84 71.16 1.71 88.15 30c15.26 25.42 50.54 72 121.49 57.63-.94-1.06-1.91-2.21-2.93-3.46-16.09-19.77-11.08-25.38-23.29-37.59-13.62-13.62-30.74-17.51-35.46-18.44-6.19-1.21-7.77-.6-14.07-1.28-19.42-2.08-33.6-11-47.2-19.72-22.69-14.6-34.15-22-38.4-36.08-4.6-15.31 4.58-20.87 1.53-34.14-6.05-26.28-46-21.37-70-47.34-34.61-37.43 2.16-97.63-26-120.73C108.12-46.41 85.92-52 32.49-27.23L20.75-4.13z" opacity=".7" fill="url(#m)"/><path d="M372.37 281.42c-29.47-11.39-53.92-36.94-77.58-40.85-12-2-23.4-3-34.38-5.93 17.91 25.36 51.97 57.99 111.96 46.78zM426 367.56c-18.43-31.38 3.68-51.6 3.68-51.6a23 23 0 001.09-3.3c-4.53 6.82-8.31 11.6-8.31 11.6-5.19 1.91-19.37 8-28.19 23.08-11.09 19-8.61 43.68 2.95 57.9 7.19 8.86 12.31 6.77 20.42 16 14.84 16.94 10.27 34.66 17.13 49.58 3.7 8 13 17.62 75.56 32.9 64.33 15.71 64.36 7.58 86.31 18.35 42.62 20.92 36 48.44 74.24 64.34 27.38 11.4 42.09-1.28 69.43-.69a89.15 89.15 0 0116.23 1.61 87.49 87.49 0 0111.91 3.32c39.47 14.07 39 45.88 69.6 64 38.29 22.74 90.37 3.32 105.42-6a134.22 134.22 0 0013.41-9.65c9.07-8.7 11.33-16.9 21.93-24 45.48-30.35 111.24 48.93 162.55 29 52-20.23 14.57-111.07 83.33-183.43 53-55.82 132.36-56.39 135.72-102.2 1.5-20.54-13.41-34.49-4.09-53.14 8.88-17.76 28.78-17.88 48.06-27.87-10.75-19-22.55-30.57-32.32-30.81-19.85-.51-18.47 45.93-78.43 108.21-28.33 29.42-43.35 34.33-74.46 72.47a400.09 400.09 0 00-43.69 64.53c-30.36 56.21-18.42 67.85-37.72 87.37-18.76 19-66.7 19.85-161.83 20.85-35 .36-62.47-.32-95.86-5-56.36-7.87-78.62-18.72-91.87-31.73-18.77-18.42-27.1-32-27.1-32-7.61-12.4-9.1-19.39-17.54-26.68-4.81-4.15-13.34-9.66-31.14-11.93C666.1 486.74 645 514 604.71 505.9a127.32 127.32 0 01-24.66-7.75c-19.32-9.27-24.93-21.73-64.85-30.37-4.39-.95-37.31-7.94-53.88-25-5.19-5.34-12.21-12.56-14.28-23-.59-3-.59-6.67-2.51-12.92-4.38-14.26-6.01-17.92-18.53-39.3zM44.57-4.13S30.08 50.66 72 79s44.18 27.36 49.81 58.56 8.45 48.51 43.07 55.84c17.27 3.66 35 4.1 50.59 7.13-1.66-2.56-2.79-4.55-3.38-5.54-11.2-18.94-6.3-24.59-16.67-37.38-9.67-11.92-15.54-9-36.14-24.89-7.89-6.09-20.11-15.52-29-28.94-12.82-19.44-11.12-36-14.38-50.26-4.5-20.14-21.2-46.16-75.43-70.93q-3.64 6.65-7.31 13.28z" opacity=".9" fill="url(#n)"/><path fill="#fff" d="M326.49 339.24l.03.84.47.7-.84.02-.69.48-.03-.84-.47-.7.84-.02.69-.48z"/><ellipse cx="421.19" cy="296.69" rx="83.4" ry="53.25" transform="rotate(-22.54 421.124 296.661)" opacity=".8" fill="url(#o)" style="mix-blend-mode:multiply"/><ellipse cx="450.22" cy="278.09" rx="83.4" ry="53.25" transform="rotate(-22.54 450.162 278.056)" fill="url(#p)" style="mix-blend-mode:multiply"/><path d="M429.24 267.12l-87.3 45.66-6.31-12.06 87.3-45.67a70.25 70.25 0 0120-6.87l5.84-1.07a1.81 1.81 0 01.46 0 2 2 0 011.29 3.37l-4.21 4.19a70.41 70.41 0 01-17.07 12.45z" fill="url(#b)"/><path d="M427.67 264.1l-87.31 45.67-4.73-9 87.3-45.67a70.25 70.25 0 0120-6.87l5.84-1.07a1.81 1.81 0 01.46 0 2.34 2.34 0 01-.29.35l-4.21 4.19a70.28 70.28 0 01-17.06 12.4z" fill="#ffecff"/><path d="M428.05 264.7l-87.3 45.67-4.75-9.05 87.31-45.67a70.29 70.29 0 0120-6.87l5.85-1.07a1.73 1.73 0 01.45 0 1.79 1.79 0 01-.28.35l-4.21 4.2a70.37 70.37 0 01-17.07 12.44z" fill="url(#q)"/><path fill="url(#r)" d="M337.57 319.87l-10.26-19.61 14.96-3.02 6.31 12.07-11.01 10.56z"/><path fill="#cc7dff" d="M335.07 315.1l-7.76-14.84 14.96-3.02 3.82 7.29-11.02 10.57z"/><path fill="#c1272d" style="mix-blend-mode:multiply" d="M335.67 316.02l-8.36-15.76 15.56-2.1 3.81 7.29-11.01 10.57z"/><path fill="#c1272d" d="M328.748 303.028l7.146 13.664-.806.421-7.147-13.664z"/><path transform="rotate(62.39 345.611 303.166)" fill="url(#c)" d="M338.8 302.97h13.62v.41H338.8z"/><path d="M451.44 311.55l-87.3 45.67-6.31-12.07 87.3-45.66a70.58 70.58 0 0120-6.88l5.84-1.06a2.42 2.42 0 01.45 0 2 2 0 011.3 3.38l-4.21 4.19a70.37 70.37 0 01-17.07 12.43z" fill="url(#s)"/><path d="M449.87 308.54l-87.31 45.66-4.73-9.05 87.3-45.66a70.58 70.58 0 0120-6.88l5.84-1.06a2.42 2.42 0 01.45 0 1.59 1.59 0 01-.28.36l-4.21 4.19a70.55 70.55 0 01-17.06 12.44z" fill="#dda9ff"/><path d="M450 308.89l-87.3 45.67-4.74-9.05 87.31-45.67a70.6 70.6 0 0120-6.87l5.85-1.07a1.73 1.73 0 01.45 0 1.54 1.54 0 01-.28.35l-4.22 4.2A70.31 70.31 0 01450 308.89z" fill="url(#t)"/><path fill="url(#d)" style="mix-blend-mode:multiply" d="M359.77 364.31l-10.26-19.61 14.96-3.03 6.32 12.07-11.02 10.57z"/><path fill="#cc7dff" d="M357.27 359.53l-7.76-14.83 14.96-3.03 3.82 7.29-11.02 10.57z"/><path fill="#c1272d" style="mix-blend-mode:multiply" d="M357.63 360.28l-7.76-14.83 14.96-3.03 3.82 7.29-11.02 10.57z"/><path fill="#c1272d" d="M350.947 347.465l7.146 13.664-.806.422-7.147-13.664z"/><path transform="rotate(62.39 367.813 347.605)" fill="url(#u)" d="M361 347.41h13.62v.41H361z"/><path d="M468.12 289.68L350.87 351 332 315l117.3-61.31a73.57 73.57 0 0141.32-8l7.29.72a5.08 5.08 0 013.94 7.53l-3.58 6.41a73.52 73.52 0 01-30.15 29.33z" fill="url(#v)"/><path d="M464.17 282.13l-117.25 61.33L332 315l117.3-61.31a73.57 73.57 0 0141.32-8l7.29.72-3.57 6.39a73.52 73.52 0 01-30.17 29.33z" fill="#fff"/><path d="M464.44 282.37L347.18 343.7l-14.88-28.45 117.26-61.33a73.67 73.67 0 0141.33-8l7.28.72-3.57 6.36a73.55 73.55 0 01-30.16 29.37z" fill="url(#w)"/><g clip-path="url(#x)"><path d="M474.08 272.44a5.09 5.09 0 00-.3-.5 1.34 1.34 0 00-.11-.14l-.24-.31-.15-.15-.26-.26-.17-.15-.28-.21-.2-.13-.3-.18-.22-.11-.33-.13-.24-.09-.28-.08a2.3 2.3 0 00-.28-.06h-.05l-.53-.06c-2.49-.15-5-.18-7.47-.09a77.43 77.43 0 00-33.08 8.77L392 298.18l-36.52-8.43-23.07 10.68.32.49-1.65.76 11.27 17.17.56.84-8.08 1.79a2.14 2.14 0 00-1.43 3.08l.76 1.45-1.54.81 5.67 10.83 1.53-.8 1.76 3.36-6.48 3.57a1.22 1.22 0 00-.49 1.64 1 1 0 00.13.16.88.88 0 00.07.23 1.22 1.22 0 001.62.53l6.64-3.29 1.41 2.7-1.54.8 5.67 10.84 1.53-.81.92 1.75a2.14 2.14 0 003.35.58l6.07-5.61.3.74 7.75 19.24 1.56-.92v.08L392 359.59l13.67-34.2 38-19.86a77.54 77.54 0 0026.14-22.27c1.47-2 2.84-4 4.12-6.08a4.79 4.79 0 00.15-4.74z" opacity=".4" fill="url(#y)" style="mix-blend-mode:multiply"/></g><path fill="#fff" d="M350.73 328.02l-22.1-30.39 24.4-11.93 51.79 11.95-54.09 30.37z"/><path fill="url(#z)" d="M350.96 328.98l-20.77-31.64 21.51-10.39 53.35 11.67-54.09 30.36z"/><path fill="#ffe4ff" d="M353.53 333.27l12.55 35.95 23.52-13.69 19.73-49.36-55.8 27.1z"/><path fill="url(#A)" d="M349.41 329.27l-9.51-14.48-11.27-17.16 23.07-10.68 26.78 6.18 25.01 5.77-54.08 30.37z"/><path fill="url(#B)" d="M339.9 314.79l-11.27-17.16 23.07-10.68 26.78 6.18-38.58 21.66z"/><path fill="url(#C)" d="M366.08 369.22l-7.75-19.23-6.39-15.88 55.79-27.1-9.41 23.56-10.31 25.8-21.93 12.85z"/><path fill="url(#D)" d="M366.08 369.22l-7.75-19.23 39.99-19.42-10.31 25.8-21.93 12.85z"/><path d="M441.24 301.47l-83.55 43.7-14.12-27 83.55-43.7a77.29 77.29 0 0133.08-8.77 74.5 74.5 0 017.47.09 4.35 4.35 0 01.52.06 4.83 4.83 0 013.31 7.26q-1.92 3.15-4.12 6.08a77.24 77.24 0 01-26.14 22.27z" fill="url(#E)"/><path d="M437.68 294.68l-83.55 43.7-10.56-20.2 83.55-43.7a77.29 77.29 0 0133.08-8.77 74.5 74.5 0 017.47.09 4.35 4.35 0 01.52.06 5.21 5.21 0 01-.24.47 81.057 81.057 0 01-4.12 6.08 77.46 77.46 0 01-26.15 22.27z" fill="#ffe4ff"/><path d="M438.12 295.36l-83.55 43.7-10.57-20.2 83.55-43.7a77.29 77.29 0 0133.08-8.77c2.48-.09 5-.06 7.47.09a4.78 4.78 0 01.53.06l-.25.47c-1.28 2.1-2.65 4.12-4.12 6.08a77.46 77.46 0 01-26.15 22.27z" fill="url(#F)"/><path d="M348.61 354.27L331 320.5a2.13 2.13 0 011.43-3.08l27.33-6.05a8.59 8.59 0 019.48 4.42l5.11 9.76a8.6 8.6 0 01-1.78 10.3l-20.56 19a2.14 2.14 0 01-3.4-.58z" fill="#ffe7ff"/><path d="M370.91 336.49l-20.19 18.65a2.11 2.11 0 01-3.29-.56l-7.94-15.19-1.27-2.39-8.13-15.55a2.11 2.11 0 011.41-3l26.84-5.94a8.44 8.44 0 019.3 4.33l1.62 3.1 2 3.77 1.42 2.72a8.45 8.45 0 01-1.77 10.06z" fill="url(#G)"/><path fill="#c1272d" style="mix-blend-mode:multiply" d="M330.476 322.07l5.668 10.837-1.542.806-5.668-10.837zM340.795 341.798l5.668 10.837-1.542.807-5.668-10.838z"/><path d="M449.72 287.34a1.14 1.14 0 01-.07-.87 8.76 8.76 0 00-5.74-11 1.14 1.14 0 11.68-2.18 11 11 0 017.23 13.82 1.14 1.14 0 01-2.1.19z" opacity=".5" fill="url(#H)"/><path d="M467.38 279.2c.66-5.2-1.55-9.68-7.18-13.49a74.5 74.5 0 017.47.09 4.83 4.83 0 013.83 7.32q-1.92 3.15-4.12 6.08z" fill="url(#I)"/><path d="M372.56 323l-1.33.65-31.74 15.74-1.27-2.39 31-17.09 1.3-.72a3.43 3.43 0 012.04 3.81z" fill="#552c84" opacity=".42" style="mix-blend-mode:multiply"/><path d="M370.23 318.24a3.42 3.42 0 012 3.83l-39.08 19.38a1.22 1.22 0 01-1.63-.53 1.21 1.21 0 01.49-1.63z" fill="url(#J)"/><path fill="none" d="M408.63 573.75l-558.42-283.86L110.9-38.92l620.16 319.97-322.43 292.7z"/><path d="M453.38 193.15a5.43 5.43 0 11-6.09-4.67 5.42 5.42 0 016.09 4.67z" fill="url(#e)" style="mix-blend-mode:screen"/><path fill="#fff" d="M447.68 191.41l1.07 1.47 1.69.65-1.46 1.07-.66 1.69-1.07-1.46-1.69-.65 1.46-1.08.66-1.69z"/><path d="M554 369.39a5.42 5.42 0 11-6.08-4.67 5.42 5.42 0 016.08 4.67z" fill="url(#K)" style="mix-blend-mode:screen"/><path fill="#fff" d="M548.32 367.65l1.07 1.47 1.69.65-1.47 1.07-.65 1.7-1.07-1.47-1.69-.65 1.46-1.07.66-1.7z"/><path d="M371.22 194l26.45 18.56a.33.33 0 01.08.46.32.32 0 01-.45.09l-27.07-17.64a.89.89 0 01-.25-1.24.89.89 0 011.24-.23z" fill="url(#f)"/><path d="M381.13 201.14l16.21 11.38a.2.2 0 01.05.28.2.2 0 01-.28 0L380.53 202a.54.54 0 01-.16-.76.55.55 0 01.76-.1z" fill="url(#g)" style="mix-blend-mode:screen"/><path d="M603.46 103.83l26.44 18.56a.32.32 0 01.08.45.32.32 0 01-.45.09l-27.07-17.64a.89.89 0 01-.25-1.24.89.89 0 011.25-.22z" fill="url(#L)"/><path d="M613.36 111l16.21 11.38a.2.2 0 010 .28.2.2 0 01-.28 0l-16.58-10.81a.54.54 0 01-.16-.76.55.55 0 01.81-.09z" fill="url(#M)" style="mix-blend-mode:screen"/><path fill="#fea7af" d="M478.2 167.69l.92 1.26 1.45.56-1.26.91-.56 1.45-.92-1.25-1.44-.56 1.25-.92.56-1.45zM560.26 170.53l.61.82.94.37-.82.6-.36.95-.61-.82-.94-.37.82-.6.36-.95zM503.3 182.18l.6.82.95.37-.83.6-.36.95-.6-.82-.95-.37.82-.6.37-.95zM413 202.15l.6.82.95.36-.82.61-.37.94-.6-.82-.95-.37.82-.6.37-.94zM290.15 183.55l.6.82.95.37-.82.6-.37.95-.6-.82-.95-.37.83-.6.36-.95z"/><path fill="#fff" opacity=".29" d="M472.28 313.58l.6.82.95.37-.82.6-.37.95-.6-.82-.95-.37.82-.6.37-.95zM294.97 199.68l.6.82.95.36-.82.6-.37.95-.6-.82-.95-.37.82-.6.37-.94zM487.06 353.38l.6.82.95.37-.82.6-.37.95-.6-.83-.95-.36.82-.6.37-.95zM508.68 421.34l.6.82.95.37-.82.6-.37.94-.6-.82-.95-.36.82-.6.37-.95z"/><path fill="#fea7af" opacity=".29" d="M442.23 224.8l1.18 1.62 1.88.73-1.62 1.19-.73 1.87-1.19-1.62-1.88-.73 1.63-1.19.73-1.87zM375.85 230.21l1.19 1.63 1.87.73-1.62 1.18-.73 1.88-1.19-1.62-1.87-.73 1.62-1.19.73-1.88zM444.93 173.27l1.19 1.63 1.88.72-1.63 1.19-.72 1.88-1.19-1.63-1.88-.72 1.63-1.19.72-1.88zM526.11 277.19l1.18 1.63 1.88.73-1.63 1.18-.72 1.88-1.19-1.62-1.88-.73 1.63-1.19.73-1.88zM328.23 210.47l1.19 1.62 1.88.73-1.63 1.19-.72 1.87-1.19-1.62-1.88-.73 1.63-1.19.72-1.87zM554.44 291.93l.56.77.89.35-.77.56-.34.89-.57-.77-.88-.34.77-.57.34-.89zM538.57 272l.56.77.89.35-.77.56-.35.89-.56-.77-.89-.34.77-.57.35-.89zM558.51 446.06l.57.77.89.34-.77.56-.35.89-.56-.77-.89-.34.77-.57.34-.88z"/><path fill="#fff" d="M549.31 224.8l.56.77.89.34-.77.56-.35.89-.56-.77-.89-.34.77-.56.35-.89zM464.35 335.35l.56.77.89.35-.77.56-.34.89-.56-.77-.89-.34.77-.57.34-.89z"/><path fill="#fea7af" opacity=".29" d="M246.58 169.25l.56.77.89.35-.77.56-.34.89-.57-.77-.88-.35.77-.56.34-.89zM517.89 205.98l1.02 1.4 1.62.62-1.4 1.03-.63 1.62-1.02-1.4-1.62-.63 1.4-1.03.63-1.61zM361.35 168.2l1.02 1.4 1.62.63-1.4 1.02-.63 1.62-1.02-1.4-1.62-.63 1.4-1.02.63-1.62zM282.02 169.57l1.03 1.4 1.62.62-1.41 1.03-.63 1.62-1.02-1.4-1.62-.63 1.4-1.02.63-1.62z"/><path fill="#fea7af" opacity=".33" d="M455.19 361.34l.89 1.22 1.41.55-1.22.89-.55 1.41-.89-1.22-1.41-.55 1.22-.89.55-1.41zM473.56 427.82l.89 1.22 1.41.54-1.22.9-.54 1.4-.9-1.22-1.4-.54 1.22-.89.54-1.41zM510.13 239.35l.63.88 1.01.39-.87.63-.39 1.01-.64-.87-1.01-.39.87-.64.4-1.01zM412.99 179.5l.64.87 1 .39-.87.64-.39 1.01-.64-.88-1-.39.87-.64.39-1z"/><path d="M296.28 55.81a5.42 5.42 0 11-6.08-4.67 5.42 5.42 0 016.08 4.67z" fill="url(#N)" style="mix-blend-mode:screen"/><path fill="#fff" d="M290.59 54.07l1.07 1.47 1.69.65-1.47 1.07-.65 1.69-1.07-1.46-1.69-.66 1.46-1.07.66-1.69z"/><path d="M214.13 56.67l26.45 18.56a.34.34 0 01.08.46.32.32 0 01-.45.09l-27.07-17.64a.88.88 0 01-.25-1.24.89.89 0 011.24-.23z" fill="url(#O)"/><path d="M224 63.8l16.21 11.37a.21.21 0 01.05.28.2.2 0 01-.28.06L223.43 64.7a.55.55 0 01-.15-.76.55.55 0 01.72-.14z" fill="url(#P)" style="mix-blend-mode:screen"/><path fill="#fea7af" d="M321.11 30.35l.92 1.26 1.44.56-1.25.91-.56 1.45-.92-1.25-1.44-.56 1.25-.92.56-1.45zM403.17 33.19l.6.82.95.37-.82.6-.37.95-.6-.82-.95-.37.82-.6.37-.95zM346.2 44.84l.61.82.94.37-.82.6-.37.95-.6-.82-.94-.37.82-.6.36-.95zM255.91 64.8l.6.83.95.36-.82.6-.37.95-.6-.82-.95-.37.82-.6.37-.95z"/><path fill="#fea7af" opacity=".29" d="M285.13 87.45l1.19 1.63 1.88.73-1.63 1.19-.72 1.87-1.19-1.62-1.88-.73 1.62-1.19.73-1.88zM287.84 35.93l1.19 1.62 1.88.73-1.63 1.19-.73 1.88-1.18-1.63-1.88-.73 1.62-1.18.73-1.88z"/><path fill="#fff" d="M392.21 87.45l.57.77.89.35-.77.56-.35.89-.56-.77-.89-.34.77-.57.34-.89z"/><path fill="#fea7af" opacity=".29" d="M360.8 68.64l1.02 1.4 1.62.62-1.4 1.03-.63 1.62-1.02-1.4-1.62-.63 1.4-1.03.63-1.61z"/><path d="M679.88 194.44a5.42 5.42 0 11-4.67 6.08 5.42 5.42 0 014.67-6.08z" fill="url(#Q)" style="mix-blend-mode:screen"/><path fill="#fff" d="M678.14 200.14l1.47-1.08.65-1.69 1.08 1.47 1.69.65-1.47 1.07-.65 1.69-1.07-1.46-1.7-.65z"/><path fill="#fea7af" d="M654.42 169.61l1.26-.91.56-1.45.92 1.25 1.44.56-1.25.92-.56 1.45-.92-1.26-1.45-.56zM657.26 87.55l.83-.6.36-.95.6.82.95.37-.82.6-.37.95-.6-.82-.95-.37zM668.91 144.52l.83-.6.36-.95.6.82.95.37-.82.6-.37.95-.6-.83-.95-.36z"/><path fill="#fea7af" opacity=".29" d="M711.53 205.59l1.62-1.19.73-1.88 1.19 1.63 1.88.73-1.63 1.18-.73 1.88-1.19-1.62-1.87-.73zM660 202.88l1.63-1.19.73-1.88 1.18 1.63 1.88.73-1.62 1.18-.73 1.88-1.19-1.62-1.88-.73z"/><path fill="#fff" d="M711.53 98.51l.77-.57.34-.89.57.77.89.35-.77.56-.35.89-.56-.77-.89-.34z"/><path fill="#fea7af" opacity=".29" d="M692.71 129.92l1.4-1.02.63-1.62 1.02 1.4 1.62.63-1.4 1.02-.63 1.62-1.02-1.4-1.62-.63z"/><path fill="#fea7af" d="M444 125.35l1.25-.92.56-1.44.92 1.25 1.44.56-1.25.92-.56 1.45-.92-1.26-1.44-.56zM446.84 43.29l.82-.6.36-.95.61.82.94.37-.82.6-.37.95-.6-.82-.94-.37zM458.48 100.25l.83-.6.36-.94.6.82.95.36-.82.61-.37.94-.6-.82-.95-.37z"/><path fill="#fff" d="M501.1 54.24l.77-.56.34-.89.57.77.89.35-.78.56-.34.89-.56-.77-.89-.35z"/><path fill="#fea7af" opacity=".29" d="M482.28 85.66l1.4-1.02.63-1.62 1.02 1.4 1.62.63-1.4 1.02-.63 1.62-1.02-1.4-1.62-.63z"/><path fill="#fea7af" d="M608.21 43.81l-.15 1.01.41.93-1.01-.16-.93.41.16-1-.41-.93 1 .15.93-.41zM559.7 11.77l-.16 1 .41.93-1-.15-.94.41.16-1.01-.41-.93 1 .16.94-.41z"/><path fill="#fff" d="M562.1 74.43l-.15.95.39.87-.95-.15-.87.39.15-.94-.39-.88.94.15.88-.39zM323.21 98.19l.77-.56.34-.89.56.77.89.35-.77.56-.34.89-.56-.77-.89-.35z"/><path fill="#fea7af" opacity=".29" d="M304.39 129.61l1.4-1.02.63-1.62 1.02 1.4 1.62.63-1.4 1.02-.63 1.62-1.03-1.4-1.61-.63z"/><path fill="#fff" d="M384.2 118.38l-.14.95.38.87-.94-.15-.87.39.14-.94-.38-.88.94.15.87-.39z"/><path fill="#fea7af" opacity=".29" d="M553.19 38.91l-.27 1.72.7 1.58-1.71-.26-1.59.7.27-1.72-.71-1.59 1.72.27 1.59-.7z"/><path fill="#fea7af" d="M809.27 115.06l-.16 1.01.41.93-1-.16-.93.41.15-1-.41-.93 1.01.15.93-.41zM760.75 83.02l-.16 1 .41.93-1-.15-.93.41.15-1.01-.41-.93 1.01.16.93-.41z"/><path fill="#fff" d="M763.15 145.69l-.15.94.39.87-.94-.15-.88.39.15-.94-.38-.88.94.15.87-.38z"/><path fill="#fea7af" opacity=".29" d="M754.24 110.16l-.26 1.72.7 1.59-1.72-.27-1.59.7.27-1.71-.7-1.59 1.71.26 1.59-.7z"/><path fill="#fea7af" d="M741.85 47.26l-.16 1.01.41.93-1-.16-.93.41.15-1-.41-.93 1.01.15.93-.41zM693.33 15.22l-.16 1 .42.94-1.01-.16-.93.41.15-1.01-.41-.93 1.01.16.93-.41z"/><path fill="#fff" d="M695.73 77.89l-.14.94.38.87-.94-.15-.88.39.15-.94-.38-.88.94.15.87-.38z"/><path fill="#fea7af" opacity=".29" d="M686.82 42.36l-.26 1.72.7 1.59-1.72-.27-1.59.7.27-1.72-.7-1.58 1.72.26 1.58-.7z"/><path fill="#fea7af" d="M607.76 274l1.26-.91.56-1.45.91 1.25 1.45.56-1.25.92-.56 1.45-.92-1.25-1.45-.57zM622.25 248.91l.82-.6.37-.95.6.82.95.37-.82.6-.37.95-.6-.82-.95-.37z"/><path fill="#fea7af" opacity=".29" d="M664.87 309.98l1.62-1.19.73-1.87 1.19 1.62 1.87.73-1.62 1.19-.73 1.87-1.19-1.62-1.87-.73zM613.34 307.27l1.63-1.19.72-1.87 1.19 1.62 1.88.73-1.63 1.19-.72 1.88-1.19-1.63-1.88-.73zM646.04 234.32l1.41-1.03.62-1.62 1.03 1.4 1.62.63-1.4 1.03-.63 1.62-1.03-1.41-1.62-.62zM780.23 302.12l1.63-1.19.72-1.87 1.19 1.62 1.88.73-1.63 1.19-.73 1.88-1.18-1.63-1.88-.73z"/><path d="M701.92 395.37a5.42 5.42 0 11-4.67 6.08 5.4 5.4 0 014.67-6.08z" fill="url(#R)" style="mix-blend-mode:screen"/><path fill="#fff" d="M700.18 401.06l1.47-1.07.65-1.69 1.08 1.46 1.69.66-1.47 1.07-.65 1.69-1.07-1.46-1.7-.66z"/><path fill="#fea7af" d="M676.47 370.54l1.25-.92.56-1.45.92 1.26 1.44.56-1.25.91-.56 1.45-.92-1.25-1.44-.56zM690.95 345.44l.82-.6.37-.95.6.82.95.37-.82.6-.37.95-.6-.82-.95-.37z"/><path fill="#fea7af" opacity=".29" d="M733.57 406.51l1.62-1.18.73-1.88 1.19 1.62 1.88.73-1.63 1.19-.73 1.88-1.18-1.63-1.88-.73zM682.04 403.81l1.63-1.19.73-1.88 1.18 1.63 1.88.72-1.62 1.19-.73 1.88-1.19-1.63-1.88-.72zM714.75 330.85l1.4-1.03.63-1.61 1.02 1.4 1.62.63-1.4 1.02-.63 1.62-1.02-1.4-1.62-.63zM724.7 239.27l1.63-1.19.72-1.88 1.19 1.63 1.88.72-1.63 1.19-.72 1.88-1.19-1.63-1.88-.72zM673.18 236.56l1.62-1.19.73-1.88 1.19 1.63 1.87.72-1.62 1.19-.73 1.88-1.19-1.63-1.87-.72zM788.54 228.7l1.63-1.19.72-1.88 1.19 1.63 1.88.73-1.63 1.18-.72 1.88-1.19-1.62-1.88-.73z"/><path fill="#fea7af" d="M750.79 274.73l.82-.6.37-.95.6.82.95.37-.82.6-.37.95-.6-.82-.95-.37z"/><path fill="#fea7af" opacity=".29" d="M774.58 260.14l1.41-1.03.62-1.62 1.03 1.4 1.62.63-1.4 1.03-.63 1.61-1.03-1.4-1.62-.62z"/><path fill="#fea7af" opacity=".33" d="M255.9 42.15l.64.88 1 .39-.87.64-.39 1-.64-.87-1.01-.39.88-.64.39-1.01z"/><g opacity=".2" fill="#fff"><path d="M535 324.73a8.58 8.58 0 11-7.42-9.6 8.58 8.58 0 017.42 9.6z"/><path d="M535.29 322.31s.9.14 2.45.49c.78.18 1.72.41 2.79.74a11.86 11.86 0 013.47 1.56 1.67 1.67 0 01.7 1.08.62.62 0 010 .24v.13a1 1 0 01-.22.37 2 2 0 01-.53.42 8.09 8.09 0 01-2.29.7 30.71 30.71 0 01-5 .39 83.47 83.47 0 01-21.26-2.73 30.34 30.34 0 01-4.71-1.63 8.33 8.33 0 01-2-1.26 2 2 0 01-.41-.53.94.94 0 01-.06-.79 1.21 1.21 0 01.44-.57 2.71 2.71 0 01.51-.3 11.82 11.82 0 013.76-.63c1.11-.05 2.08 0 2.88 0 1.59 0 2.5.14 2.5.14s-.91 0-2.5.08c-.79 0-1.75.1-2.85.22a13.49 13.49 0 00-3.51.8 2.14 2.14 0 00-.37.23c-.06.05-.11.09-.11.11a.36.36 0 000 .11c-.07.11.08.35.32.56a7.52 7.52 0 001.87 1 41.21 41.21 0 004.62 1.43 87 87 0 0010.43 1.87 82.88 82.88 0 0010.57.82 39.69 39.69 0 004.84-.21c1.39-.19 3.41-.68 2.1-1.59a13.11 13.11 0 00-3.21-1.66c-1-.4-1.94-.7-2.7-.93-1.64-.42-2.52-.66-2.52-.66z"/></g><g opacity=".2" fill="#fff"><path d="M425.84 68.64a8.58 8.58 0 11-7.42-9.64 8.58 8.58 0 017.42 9.64z"/><path d="M426.16 66.21s.89.14 2.45.49c.78.18 1.72.41 2.79.74a11.86 11.86 0 013.47 1.56 1.67 1.67 0 01.7 1.08.5.5 0 010 .24v.13a1.17 1.17 0 01-.22.37 1.85 1.85 0 01-.53.42 8 8 0 01-2.29.7 30.71 30.71 0 01-5 .39 86.1 86.1 0 01-10.72-.68 85.48 85.48 0 01-10.54-2.05 30.34 30.34 0 01-4.72-1.6 8.15 8.15 0 01-2-1.26 2 2 0 01-.41-.53.94.94 0 01-.06-.79 1.26 1.26 0 01.43-.57 3.47 3.47 0 01.52-.3 11.82 11.82 0 013.76-.63h2.88c1.59 0 2.5.14 2.5.14s-.91 0-2.5.08c-.79 0-1.76.1-2.85.23a13.13 13.13 0 00-3.52.79 2.48 2.48 0 00-.36.23c-.06.05-.11.09-.11.11a.34.34 0 000 .12c-.07.1.08.34.31.55a7.56 7.56 0 001.87 1 41.39 41.39 0 004.63 1.43A87 87 0 00417 70.49a84.66 84.66 0 0010.57.83 41.45 41.45 0 004.83-.22c1.4-.19 3.42-.68 2.1-1.59a13.05 13.05 0 00-3.2-1.66c-1-.4-1.94-.7-2.7-.93-1.6-.47-2.44-.71-2.44-.71z"/></g><path d="M311 168l43.41 30.46a.54.54 0 01.13.75.53.53 0 01-.74.15l-44.43-28.95a1.46 1.46 0 01-.41-2A1.45 1.45 0 01311 168z" fill="url(#S)"/><path d="M327.28 179.66l26.6 18.67a.34.34 0 01.09.46.34.34 0 01-.46.09l-27.22-17.75a.88.88 0 01-.26-1.24.89.89 0 011.25-.23z" fill="url(#h)" style="mix-blend-mode:screen"/><path d="M661.37 256.41l43.41 30.47a.53.53 0 01.13.74.52.52 0 01-.74.15l-44.43-28.95a1.46 1.46 0 01-.41-2 1.45 1.45 0 012.04-.41z" fill="url(#T)"/><path d="M677.63 268.11l26.6 18.67a.34.34 0 01.09.46.34.34 0 01-.46.09l-27.22-17.74a.91.91 0 01-.26-1.25.89.89 0 011.25-.23z" fill="url(#U)" style="mix-blend-mode:screen"/><g opacity=".35"><path d="M491.54 363.73l57.63 40.45a.72.72 0 01.18 1 .73.73 0 01-1 .2l-59-38.45a1.93 1.93 0 01-.54-2.7 1.93 1.93 0 012.73-.5z" fill="url(#i)"/><path d="M513.13 379.26l35.32 24.79a.44.44 0 01.11.61.43.43 0 01-.6.12l-36.15-23.56a1.18 1.18 0 01-.34-1.65 1.18 1.18 0 011.66-.31z" fill="url(#V)" style="mix-blend-mode:screen"/><path d="M474.64 371.15l26.45 18.56a.34.34 0 01.08.46.32.32 0 01-.45.09l-27.07-17.64a.89.89 0 01-.25-1.24.89.89 0 011.24-.23z" fill="url(#W)"/><path d="M484.55 378.28l16.21 11.37a.21.21 0 01.05.28.21.21 0 01-.28.06l-16.59-10.81a.55.55 0 01-.15-.76.55.55 0 01.76-.14z" fill="url(#X)" style="mix-blend-mode:screen"/></g><path d="M513.13 379.26l35.32 24.79a.44.44 0 01.11.61.43.43 0 01-.6.12l-36.15-23.56a1.18 1.18 0 01-.34-1.65 1.18 1.18 0 011.66-.31z" fill="url(#V)" style="mix-blend-mode:screen"/><g opacity=".35"><path d="M667.64 33.37l57.63 40.45a.72.72 0 01.18 1 .71.71 0 01-1 .2l-59-38.44a1.94 1.94 0 01-.54-2.71 1.93 1.93 0 012.73-.5z" fill="url(#Y)"/><path d="M689.23 48.9l35.32 24.79a.44.44 0 01.11.61.44.44 0 01-.61.12L687.9 50.86a1.18 1.18 0 01-.33-1.65 1.18 1.18 0 011.66-.31z" fill="url(#Z)" style="mix-blend-mode:screen"/><path d="M650.74 40.79l26.45 18.56a.34.34 0 01.08.46.32.32 0 01-.45.09l-27.07-17.64a.88.88 0 01-.25-1.26.89.89 0 011.24-.21z" fill="url(#aa)"/><path d="M660.65 47.92l16.21 11.38a.2.2 0 010 .28.2.2 0 01-.28.05L660 48.82a.55.55 0 01-.15-.76.55.55 0 01.8-.14z" fill="url(#ab)" style="mix-blend-mode:screen"/></g><path d="M689.23 48.9l35.32 24.79a.44.44 0 01.11.61.44.44 0 01-.61.12L687.9 50.86a1.18 1.18 0 01-.33-1.65 1.18 1.18 0 011.66-.31z" fill="url(#Z)" style="mix-blend-mode:screen"/><path d="M783.7 426.77l43.41 30.46a.54.54 0 01.13.75.54.54 0 01-.74.15l-44.43-29a1.45 1.45 0 01-.41-2 1.45 1.45 0 012.04-.36z" fill="url(#ac)"/><path d="M800 438.47l26.6 18.67a.33.33 0 01.08.45.34.34 0 01-.46.1L799 439.94a.88.88 0 01-.25-1.24.88.88 0 011.25-.23z" fill="url(#ad)" style="mix-blend-mode:screen"/><path d="M800.39 178.35l43.41 30.46a.55.55 0 01.14.75.55.55 0 01-.75.15l-44.43-29a1.47 1.47 0 01-.41-2 1.45 1.45 0 012.04-.36z" fill="url(#ae)"/><path fill="none" d="M1620.21 887.64H797.05L0 520.25V0h1620.21v887.64z"/></g></svg>